<?xml version="1.0" encoding="UTF-8"?>
<svg version="1.1" xmlns="http://www.w3.org/2000/svg" width="3000" height="768">
<path d="M0 0 C48.05625 -0.061875 96.1125 -0.12375 145.625 -0.1875 C168.34786865 -0.22846802 168.34786865 -0.22846802 191.52978516 -0.27026367 C210.0925293 -0.28381348 210.0925293 -0.28381348 218.79501343 -0.28633118 C224.84574932 -0.28911511 230.89640096 -0.30006119 236.94711304 -0.31672668 C243.94306184 -0.33596679 250.93893058 -0.34447457 257.93490597 -0.34033485 C261.50552795 -0.33854527 265.07597156 -0.34116765 268.64655995 -0.35764539 C299.70775665 -0.47989331 332.55024645 1.39965382 357 23 C357.83015625 23.68835938 358.6603125 24.37671875 359.515625 25.0859375 C377.60463818 40.5211733 386.31256178 64.14963425 388.71875 87.35546875 C390.93267671 118.93940391 388.46107916 152.9536582 367 178 C366.56558594 178.5775 366.13117188 179.155 365.68359375 179.75 C352.60054985 196.62126855 330.34169663 205.24764819 310 209 C316.05930511 219.89210435 322.57723583 230.46956557 329.16552734 241.04736328 C332.39811794 246.25031119 335.60447473 251.46938295 338.8125 256.6875 C340.17317513 258.89974078 341.53385223 261.11198036 342.89453125 263.32421875 C343.57338379 264.42813965 344.25223633 265.53206055 344.95166016 266.66943359 C347.63660427 271.03510792 350.32274569 275.40004478 353.0090332 279.76489258 C354.33189587 281.91440247 355.65465051 284.06397885 356.97729492 286.21362305 C360.06881612 291.23805842 363.16102966 296.26206335 366.25592041 301.28442383 C367.69906408 303.6264472 369.14178322 305.96873195 370.58447266 308.31103516 C371.58845628 309.94068291 372.59304487 311.56995791 373.59765625 313.19921875 C375.4027678 316.1301795 377.20186109 319.06475807 379 322 C379.88703613 323.43472656 379.88703613 323.43472656 380.79199219 324.8984375 C381.34274414 325.79820312 381.89349609 326.69796875 382.4609375 327.625 C382.95126465 328.42164063 383.4415918 329.21828125 383.94677734 330.0390625 C385 332 385 332 385 334 C374.02136967 334.20865464 363.04321185 334.3685062 352.06300163 334.46630955 C346.96413963 334.51325484 341.86663524 334.57690971 336.76855469 334.67895508 C331.84714586 334.77684607 326.92704136 334.83057766 322.00473404 334.85389519 C320.12829168 334.87050795 318.25191974 334.90295186 316.37603378 334.95157051 C301.6959163 335.3168653 301.6959163 335.3168653 297.60162354 332.13768005 C296.01516561 329.8070807 294.986031 327.63389833 294 325 C293.39414063 324.000896 292.78828125 323.00179199 292.1640625 321.97241211 C291.65617187 321.08303955 291.14828125 320.19366699 290.625 319.27734375 C290.03976562 318.25705078 289.45453125 317.23675781 288.8515625 316.18554688 C288.24054688 315.11369141 287.62953125 314.04183594 287 312.9375 C285.66718751 310.6129802 284.33384757 308.28876911 283 305.96484375 C282.49666138 305.08679581 282.49666138 305.08679581 281.9831543 304.19100952 C278.68614696 298.44265452 275.3461504 292.71983777 272 287 C267.13857898 278.68271288 262.30854644 270.34796414 257.5 262 C251.44113832 251.48210614 245.34221317 240.9882125 239.21875 230.5078125 C238.70054687 229.61868164 238.18234375 228.72955078 237.6484375 227.81347656 C236.45356065 225.77411624 235.24919417 223.74030636 234.0390625 221.70996094 C233.39710938 220.6274707 232.75515625 219.54498047 232.09375 218.4296875 C231.50271484 217.43952637 230.91167969 216.44936523 230.30273438 215.42919922 C229 213 229 213 229 211 C178.51 211 128.02 211 76 211 C76.03961942 251.10535334 76.03961942 251.10535334 76.09008789 291.21069336 C76.09460449 298.95031738 76.09460449 298.95031738 76.09544373 302.56837463 C76.09698385 305.1066658 76.10051017 307.64495622 76.10557556 310.1832428 C76.11284845 314.01792684 76.11390757 317.852566 76.11352539 321.68725586 C76.1171235 322.82659797 76.12072161 323.96594007 76.12442875 325.1398077 C76.12305125 326.16556188 76.12167376 327.19131605 76.12025452 328.24815369 C76.12117631 329.14690185 76.1220981 330.04565001 76.12304783 330.97163296 C76 333 76 333 75 334 C50.25 334 25.5 334 0 334 C0 223.78 0 113.56 0 0 Z M76 61 C76 90.04 76 119.08 76 149 C105.7339544 149.42247751 105.7339544 149.42247751 135.46875 149.76953125 C136.98906075 149.78486876 136.98906075 149.78486876 138.54008484 149.80051613 C165.27656579 150.06396757 192.0133277 150.15021049 218.75097656 150.18167114 C222.49220085 150.18748787 226.23339646 150.19718992 229.97460938 150.20800781 C235.92052471 150.22467803 241.86636398 150.23089833 247.81230164 150.22919655 C250.00705857 150.23003154 252.20181721 150.23415347 254.39656067 150.24188805 C277.76033951 150.67011437 277.76033951 150.67011437 299 142 C299.928125 141.443125 300.85625 140.88625 301.8125 140.3125 C311.21261633 130.37523417 313.0701334 117.14238862 313 104 C312.497872 92.24862753 311.02856356 80.46373025 302.70703125 71.53125 C289.29282808 59.4983721 271.10663532 60.70390343 254.23486328 60.77294922 C252.28208421 60.77351452 250.32930471 60.77319445 248.37652588 60.77206421 C243.11715408 60.77149435 237.85787498 60.7831888 232.59852457 60.79721212 C227.08659247 60.8097811 221.57465785 60.81089482 216.06271362 60.81326294 C205.64378197 60.81945968 195.22489268 60.83584588 184.80597961 60.85596192 C170.71367511 60.8825751 156.62135889 60.89330817 142.52903557 60.90496635 C120.3526587 60.9237279 98.17637119 60.9635856 76 61 Z " fill="#175E95" transform="translate(1150,348)"/>
<path d="M0 0 C120.78 0 241.56 0 366 0 C366 20.13 366 40.26 366 61 C269.97 61 173.94 61 75 61 C75 85.09 75 109.18 75 134 C162.12 134 249.24 134 339 134 C339 154.13 339 174.26 339 195 C251.88 195 164.76 195 75 195 C75 220.41 75 245.82 75 272 C171.03 272 267.06 272 366 272 C366 292.46 366 312.92 366 334 C245.22 334 124.44 334 0 334 C0 223.78 0 113.56 0 0 Z " fill="#175E94" transform="translate(682,348)"/>
<path d="M0 0 C48.05625 -0.061875 96.1125 -0.12375 145.625 -0.1875 C168.34786865 -0.22846802 168.34786865 -0.22846802 191.52978516 -0.27026367 C210.0925293 -0.28381348 210.0925293 -0.28381348 218.79501343 -0.28633118 C224.84574932 -0.28911511 230.89640096 -0.30006119 236.94711304 -0.31672668 C243.94306184 -0.33596679 250.93893058 -0.34447457 257.93490597 -0.34033485 C261.50552795 -0.33854527 265.07597156 -0.34116765 268.64655995 -0.35764539 C302.44316505 -0.49065908 337.09897368 2.66880767 362.55957031 27.52001953 C383.76793155 49.31071204 389.39767111 78.5905125 389.23242188 108.07373047 C388.79179759 135.96084136 382.26248392 162.57153996 362.875 183.5625 C338.2114784 206.8807386 306.07570247 211.52184259 273.53417969 211.34057617 C271.36376965 211.33972747 269.19335876 211.34020978 267.02294922 211.34190369 C261.19779531 211.34275557 255.37283117 211.32526222 249.54772091 211.30418181 C243.43524607 211.28527876 237.32276567 211.28365393 231.21026611 211.28010559 C219.66528541 211.27082483 208.12039113 211.24626539 196.57544827 211.21605712 C183.41926149 211.18238875 170.26307032 211.16599599 157.1068511 211.15097082 C130.07118638 211.11971182 103.03559806 211.06702946 76 211 C76.00092179 211.62783355 76.00184359 212.2556671 76.00279331 212.9025259 C76.02484875 228.15790231 76.04141165 243.41327384 76.05181217 258.66866207 C76.05697508 266.04595956 76.06401767 273.42324643 76.07543945 280.80053711 C76.08538646 287.2283218 76.09185347 293.6560988 76.09408849 300.08389097 C76.09539557 303.48939278 76.09848125 306.89487258 76.10573006 310.30036736 C76.11293606 314.09601041 76.11399113 317.89160712 76.11352539 321.68725586 C76.11712067 322.82445068 76.12071594 323.96164551 76.12442017 325.13330078 C76.1230455 326.16120224 76.12167084 327.1891037 76.12025452 328.24815369 C76.12117631 329.14690185 76.1220981 330.04565001 76.12304783 330.97163296 C76 333 76 333 75 334 C50.25 334 25.5 334 0 334 C0 223.78 0 113.56 0 0 Z M75 61 C74.99453718 67.15599142 74.99059648 73.31198138 74.9879837 79.46797466 C74.98689289 81.55625082 74.98540722 83.64452682 74.98349762 85.73280239 C74.97025596 100.60045094 75.07532028 115.45013478 75.5 130.3125 C75.54871037 132.17902262 75.59688293 134.04555934 75.64453125 135.91210938 C75.75697912 140.27492373 75.87613821 144.63749544 76 149 C123.58242074 149.7193337 171.16297476 150.12567708 218.75097656 150.18167114 C222.49220085 150.18748787 226.23339646 150.19718992 229.97460938 150.20800781 C235.92052471 150.22467803 241.86636398 150.23089833 247.81230164 150.22919655 C250.00705857 150.23003154 252.20181721 150.23415347 254.39656067 150.24188805 C279.74027482 150.73402699 279.74027482 150.73402699 301.875 139.625 C312.31456732 126.72906389 314.07062505 111.50586769 312.5 95.26953125 C310.83451403 84.37881442 307.52361039 74.99874759 298.5625 68.1875 C285.32152297 59.64678322 269.32612627 60.71113542 254.14306641 60.77294922 C252.18043524 60.77351451 250.21780365 60.77319447 248.25517273 60.77206421 C242.96894248 60.77149432 237.68280444 60.78318933 232.39659548 60.79721212 C226.85663613 60.80978052 221.31667428 60.81089477 215.77670288 60.81326294 C205.30464738 60.81945985 194.83263402 60.83584628 184.36059701 60.85596192 C172.43063825 60.87837683 160.5006774 60.88932837 148.57070279 60.89935279 C124.0471119 60.92021422 99.52355832 60.95535515 75 61 Z " fill="#175E94" transform="translate(1646,348)"/>
<path d="M0 0 C1.58514252 0.00056958 1.58514252 0.00056958 3.20230812 0.00115067 C4.41652083 -0.00084038 5.63073354 -0.00283143 6.88174057 -0.00488281 C8.24652577 -0.00202922 9.61131079 0.00091638 10.97609562 0.00394398 C12.41238939 0.0035084 13.84868309 0.00263375 15.28497636 0.00135481 C19.25047475 -0.00089284 23.21594639 0.00313481 27.18144137 0.00813287 C31.45072067 0.01243334 35.71999835 0.01099124 39.98927921 0.0102306 C47.39229865 0.00970511 54.7953093 0.01285454 62.19832653 0.01846844 C72.90197431 0.02658002 83.60561783 0.02919831 94.30926835 0.03045643 C111.67334644 0.03264749 129.03741985 0.03930903 146.4014954 0.04875904 C163.27356547 0.05793177 180.14563427 0.06501328 197.01770633 0.06926686 C198.57652394 0.06966094 198.57652394 0.06966094 200.16683281 0.07006299 C205.38001897 0.07136798 210.59320513 0.0726317 215.8063913 0.07387489 C259.08573589 0.08424918 302.36507536 0.10186895 345.64441532 0.1241985 C345.92418444 7.36504832 346.13651206 14.6047094 346.26616138 21.84989601 C346.32843919 25.21566959 346.41264989 28.57771202 346.54968876 31.94133717 C347.44091672 55.52829684 347.44091672 55.52829684 343.11755985 61.24040943 C340.31162598 64.11637802 337.11328736 66.10566686 333.64441532 68.1241985 C331.74714992 69.63837983 329.86847904 71.17651784 328.01941532 72.7491985 C327.11964969 73.47365162 326.21988407 74.19810475 325.29285282 74.944511 C322.67166413 77.10177248 320.15287251 79.3373085 317.64441532 81.6241985 C313.34449741 85.54311102 308.88521985 89.21590719 304.36316532 92.8741985 C300.86391007 95.77013387 297.52378916 98.82249805 294.16785282 101.882011 C291.59359173 104.16935753 288.95152042 106.3396812 286.26941532 108.4991985 C282.25617421 111.7437061 278.42005578 115.1114653 274.64441532 118.6241985 C270.01190432 122.93413619 265.22319582 126.97480789 260.29285282 130.944511 C257.67166413 133.10177248 255.15287251 135.3373085 252.64441532 137.6241985 C248.34449741 141.54311102 243.88521985 145.21590719 239.36316532 148.8741985 C236.72293802 151.05921419 234.17711812 153.3159124 231.64441532 155.6241985 C227.34449741 159.54311102 222.88521985 163.21590719 218.36316532 166.8741985 C215.72293802 169.05921419 213.17711812 171.3159124 210.64441532 173.6241985 C206.34449741 177.54311102 201.88521985 181.21590719 197.36316532 184.8741985 C194.72293802 187.05921419 192.17711812 189.3159124 189.64441532 191.6241985 C185.34449741 195.54311102 180.88521985 199.21590719 176.36316532 202.8741985 C172.86533381 205.76895561 169.52656128 208.82009388 166.17175907 211.87810475 C163.57479139 214.18607447 160.91037519 216.37975712 158.20691532 218.5616985 C154.40354029 221.63756438 150.7435888 224.81173016 147.14441532 228.1241985 C142.67456412 232.23798758 138.05396639 236.09507146 133.32800907 239.90935475 C130.69732975 242.08052676 128.16499107 244.32661207 125.64441532 246.6241985 C121.35605083 250.53258132 116.91051859 254.19724735 112.39832157 257.8429485 C108.70358741 260.90355097 105.16791588 264.12334038 101.64050907 267.3741985 C99.64441532 269.1241985 99.64441532 269.1241985 97.64441532 270.1241985 C179.15441532 270.4541985 260.66441532 270.7841985 344.64441532 271.1241985 C344.64441532 291.5841985 344.64441532 312.0441985 344.64441532 333.1241985 C226.50441532 333.1241985 108.36441532 333.1241985 -13.35558468 333.1241985 C-13.35558468 313.9841985 -13.35558468 294.8441985 -13.35558468 275.1241985 C-6.5911194 268.92343865 -0.09891851 263.01639565 6.99597782 257.303886 C9.61716651 255.14662451 12.13595813 252.91108849 14.64441532 250.6241985 C18.04040213 247.52864653 21.50613063 244.57268643 25.08191532 241.6866985 C28.88529035 238.61083262 32.54524184 235.43666684 36.14441532 232.1241985 C40.61426652 228.01040941 45.23486425 224.15332553 49.96082157 220.33904225 C52.59150089 218.16787023 55.12383956 215.92178493 57.64441532 213.6241985 C61.94433323 209.70528597 66.40361079 206.0324898 70.92566532 202.3741985 C74.42349683 199.47944139 77.76226936 196.42830311 81.11707157 193.37029225 C83.71403925 191.06232252 86.37845545 188.86863987 89.08191532 186.6866985 C92.88529035 183.61083262 96.54524184 180.43666684 100.14441532 177.1241985 C104.61426652 173.01040941 109.23486425 169.15332553 113.96082157 165.33904225 C116.59150089 163.16787023 119.12383956 160.92178493 121.64441532 158.6241985 C125.04040213 155.52864653 128.50613063 152.57268643 132.08191532 149.6866985 C135.88529035 146.61083262 139.54524184 143.43666684 143.14441532 140.1241985 C147.61426652 136.01040941 152.23486425 132.15332553 156.96082157 128.33904225 C159.59150089 126.16787023 162.12383956 123.92178493 164.64441532 121.6241985 C168.04040213 118.52864653 171.50613063 115.57268643 175.08191532 112.6866985 C178.88529035 109.61083262 182.54524184 106.43666684 186.14441532 103.1241985 C190.61426652 99.01040941 195.23486425 95.15332553 199.96082157 91.33904225 C202.59150089 89.16787023 205.12383956 86.92178493 207.64441532 84.6241985 C211.84100112 80.79946207 216.174389 77.19523214 220.61316532 73.6554485 C225.06525507 69.93772406 229.33314408 66.00434262 233.64441532 62.1241985 C155.76441532 61.7941985 77.88441532 61.4641985 -2.35558468 61.1241985 C-3.12319578 57.28614302 -3.48181316 54.35566114 -3.48497921 50.52361256 C-3.48970745 48.87730854 -3.48970745 48.87730854 -3.49453121 47.19774586 C-3.49149487 45.43657429 -3.49149487 45.43657429 -3.48839718 43.6398235 C-3.48935391 42.42848744 -3.49031063 41.21715138 -3.49129635 39.96910816 C-3.49197599 37.41387082 -3.49013677 34.85863173 -3.48595577 32.30339772 C-3.48058596 28.37513611 -3.48591762 24.44698788 -3.49230343 20.51872975 C-3.49164298 18.03826074 -3.49036249 15.55779181 -3.48839718 13.0773235 C-3.49042141 11.89511219 -3.49244564 10.71290089 -3.49453121 9.494865 C-3.49137905 8.40993763 -3.48822689 7.32501026 -3.48497921 6.20720631 C-3.48418362 5.24743885 -3.48338803 4.2876714 -3.48256832 3.29882008 C-3.30430252 0.24598077 -3.06117824 0.161401 0 0 Z " fill="#122D48" transform="translate(238.3555846810341,348.8758015036583)"/>
<path d="M0 0 C0.8545021 0.00092179 1.70900419 0.00184359 2.58940029 0.00279331 C3.56681683 0.00141865 4.54423336 0.00004398 5.55126858 -0.00137234 C6.63235897 0.00222294 7.71344936 0.00581821 8.82730007 0.00952244 C10.52464039 0.0093034 10.52464039 0.0093034 12.25627041 0.00907993 C16.01686389 0.00977964 19.77740855 0.01757472 23.53799343 0.02539158 C26.13731261 0.02725555 28.73663215 0.02867955 31.33595181 0.0296793 C37.49122295 0.03311442 43.64647378 0.04100527 49.80173725 0.05102879 C56.80767064 0.06219089 63.81360485 0.06770062 70.81954491 0.07272422 C85.23481851 0.08318791 99.65007722 0.10078675 114.06533718 0.12304783 C115.8045539 3.85839091 117.54258832 7.59428138 119.27964687 11.3306284 C119.86757867 12.59484891 120.45580317 13.85893337 121.04435635 15.12286472 C125.18220582 24.00969357 129.25133727 32.92378159 133.25283718 41.87304783 C133.73911335 42.95962177 133.73911335 42.95962177 134.23521328 44.06814671 C134.99224185 45.76171299 135.74759836 47.45602641 136.50283718 49.15039158 C140.56544162 58.25476687 144.65971492 67.3448629 148.75283718 76.43554783 C149.52198242 78.14419728 150.29110665 79.85285619 151.06021023 81.56152439 C152.61830597 85.02299119 154.17650285 88.48441244 155.73477077 91.94580173 C159.13915306 99.50819462 162.54222641 107.0711765 165.94537258 114.63412571 C167.81863803 118.79712499 169.69199219 122.96008435 171.56533718 127.12304783 C172.3153376 128.78971431 173.0653376 130.45638097 173.81533718 132.12304783 C174.18658718 132.94804783 174.55783718 133.77304783 174.94033718 134.62304783 C214.31533718 222.12304782 214.31533718 222.12304782 215.4402914 224.62295628 C216.19043384 226.28993269 216.94058643 227.95690453 217.69074917 229.6238718 C219.5636531 233.78576202 221.43638158 237.947731 223.30874538 242.10986423 C227.09218713 250.51967338 230.87871837 258.92807086 234.67080593 267.33398533 C239.14719641 277.25850034 243.61180854 287.18825317 248.06533718 297.12304783 C248.62012753 298.35991337 248.62012753 298.35991337 249.18612576 299.62176609 C251.35960342 304.46913195 253.5265123 309.31933984 255.68389797 314.17389011 C256.34929522 315.66916257 257.01656166 317.16360478 257.68579006 318.65716648 C258.60149104 320.70206647 259.51013337 322.74995485 260.41689968 324.79882908 C261.18767849 326.52999973 261.18767849 326.52999973 261.97402859 328.29614353 C263.06533718 331.12304783 263.06533718 331.12304783 263.06533718 334.12304783 C236.33533718 334.12304783 209.60533718 334.12304783 182.06533718 334.12304783 C172.87890042 315.75017431 172.87890042 315.75017431 169.55752468 308.26757908 C169.18354549 307.4332082 168.80956631 306.59883732 168.42425442 305.73918247 C167.25969826 303.13940985 166.09978633 300.53760146 164.94033718 297.93554783 C163.77590789 295.33026471 162.61047849 292.72543193 161.44454861 290.12082005 C160.69496824 288.44584249 159.94621027 286.77049662 159.19833279 285.09475803 C156.55664801 279.18476704 153.84158227 273.31399071 151.06582546 267.46557713 C150.06533718 265.12304783 150.06533718 265.12304783 150.06533718 263.12304783 C87.69533718 263.12304783 25.32533718 263.12304783 -38.93466282 263.12304783 C-39.92466282 266.09304783 -40.91466282 269.06304783 -41.93466282 272.12304783 C-43.02222113 274.67998254 -44.12949562 277.19508744 -45.30575657 279.70898533 C-45.62818836 280.40907719 -45.95062016 281.10916904 -46.28282261 281.83047581 C-47.30817798 284.05507624 -48.33972192 286.2767282 -49.37216282 288.49804783 C-56.38525606 303.63896712 -63.15614511 318.87138298 -69.93466282 334.12304783 C-96.99466282 334.12304783 -124.05466282 334.12304783 -151.93466282 334.12304783 C-151.2369756 330.63461176 -150.76593985 328.40264328 -149.36264133 325.33471775 C-149.03970097 324.62173023 -148.7167606 323.90874271 -148.38403416 323.17414951 C-148.03078068 322.40834064 -147.6775272 321.64253178 -147.31356907 320.85351658 C-146.94242985 320.03763569 -146.57129063 319.2217548 -146.18890476 318.38115025 C-144.96302406 315.68877903 -143.72999381 312.99974266 -142.49716282 310.31054783 C-141.63335385 308.41580587 -140.77016309 306.52078195 -139.90756321 304.62548923 C-138.57394064 301.69554474 -137.23990712 298.76579446 -135.90394688 295.83691502 C-131.89855691 287.05555196 -127.93082101 278.25756198 -123.9754343 269.45358372 C-122.86285126 266.97732323 -121.74946526 264.50142527 -120.63583469 262.02563572 C-118.40156549 257.05835151 -116.16804181 252.09073235 -113.93466282 247.12304783 C-110.9560695 240.49778988 -107.9770655 233.87271697 -104.99716282 227.24804783 C-104.62909519 226.42974491 -104.26102757 225.61144199 -103.88180637 224.76834202 C-97.98006484 211.64918306 -92.05536097 198.54050627 -86.12216282 185.43554783 C-80.33853521 172.66085228 -74.57156134 159.87918383 -68.84213352 147.08007908 C-64.34184402 137.02715503 -59.82884816 126.97999074 -55.30966282 116.93554783 C-54.93273289 116.09774784 -54.55580296 115.25994785 -54.1674509 114.39675999 C-47.76784696 100.17494525 -41.34290233 85.96466996 -34.90969944 71.75802708 C-29.8943487 60.68185606 -24.8982827 49.59749389 -19.93466282 38.49804783 C-15.88218023 29.44223154 -11.80543295 20.39801984 -7.68466282 11.37304783 C-7.21802219 10.34743748 -6.75138157 9.32182713 -6.27060032 8.26513767 C-5.63251438 6.87222507 -5.63251438 6.87222507 -4.98153782 5.45117283 C-4.60867649 4.63551853 -4.23581516 3.81986423 -3.85165501 2.97949314 C-2.45712602 0.15627737 -2.45712602 0.15627737 0 0 Z M53.06533718 59.12304783 C48.90769602 67.27377971 45.02404832 75.50949531 41.31533718 83.87304783 C40.4685518 85.7735024 39.62069374 87.67347632 38.77281094 89.57344151 C38.16727992 90.93047692 37.56205119 92.28764726 36.95710659 93.64494419 C33.49503969 101.41053344 30.0039819 109.16304315 26.51269436 116.9155283 C25.37217489 119.4481213 24.23200631 121.98087198 23.09194851 124.51367283 C21.53988418 127.96179746 19.98771448 131.40987461 18.43545437 134.85791111 C14.83985914 142.84508579 11.24567406 150.83289506 7.65136623 158.82064915 C4.66257048 165.46270867 4.66257048 165.46270867 3.28810024 168.51643467 C2.60162586 170.04224577 1.91563241 171.56827334 1.23014736 173.09452915 C-0.65545447 177.29104831 -2.55242399 181.48207952 -4.46151829 185.6679697 C-5.08739086 187.04526249 -5.08739086 187.04526249 -5.72590733 188.45037937 C-6.53558455 190.23175122 -7.3481908 192.01179534 -8.16404819 193.79034519 C-8.5265517 194.58946323 -8.88905521 195.38858128 -9.26254368 196.21191502 C-9.74756603 197.27403202 -9.74756603 197.27403202 -10.24238682 198.35760593 C-11.05635041 200.11732206 -11.05635041 200.11732206 -10.93466282 202.12304783 C32.95533718 202.12304783 76.84533718 202.12304783 122.06533718 202.12304783 C120.07697318 196.15795582 118.06422866 190.57309842 115.46768093 184.90039158 C115.12161297 184.13465321 114.77554501 183.36891483 114.41899014 182.57997227 C113.28431787 180.07164267 112.14355164 177.5661346 111.00283718 175.06054783 C110.19572774 173.27885909 109.38909603 171.49695386 108.58291531 169.7148447 C106.9094679 166.01657668 105.23397905 162.31924393 103.5570364 158.62255955 C100.07872222 150.95078427 96.62560347 143.26770321 93.17220974 135.58468723 C92.06336542 133.11866271 90.95345241 130.65312209 89.84316921 128.18774509 C86.35766128 120.44762051 82.87645028 112.70563693 79.40887356 104.95745945 C77.78961911 101.33993424 76.16815758 97.7234002 74.54653835 94.10693455 C73.78176913 92.39974341 73.0180549 90.69207918 72.25552273 88.98388767 C67.75568011 78.9043208 63.10235799 68.94697531 58.06533718 59.12304783 C56.41533718 59.12304783 54.76533718 59.12304783 53.06533718 59.12304783 Z " fill="#122D48" transform="translate(2256.9346628189087,347.8769521713257)"/>
<path d="M0 0 C2.86001587 -0.36076355 2.86001587 -0.36076355 6.56103516 -0.34057617 C7.57096779 -0.34123329 7.57096779 -0.34123329 8.6013031 -0.34190369 C10.83084938 -0.33981056 13.05964731 -0.3164562 15.2890625 -0.29296875 C16.83319691 -0.28737463 18.37733664 -0.28310366 19.92147827 -0.28010559 C23.98883727 -0.26864226 28.05587571 -0.23916262 32.12310791 -0.20599365 C36.27213199 -0.17532462 40.42120778 -0.16160706 44.5703125 -0.14648438 C52.7136889 -0.11429405 60.85680459 -0.06308008 69 0 C82.57203234 29.09109263 82.57203234 29.09109263 88.73065186 43.09265137 C90.38122552 46.84347386 92.04223744 50.58967316 93.703125 54.3359375 C94.22373001 55.51041443 94.22373001 55.51041443 94.75485229 56.70861816 C98.91357329 66.07740544 103.14368844 75.41383104 107.375 84.75 C108.98572775 88.30466454 110.59641424 91.85934778 112.20703125 95.4140625 C112.60588028 96.29427063 113.00472931 97.17447876 113.41566467 98.08135986 C117.64685609 107.42223119 121.85662389 116.77270827 126.0625 126.125 C126.42714355 126.9357901 126.79178711 127.7465802 127.16748047 128.5819397 C128.64087675 131.85819824 130.11417012 135.13450301 131.58724976 138.41090393 C134.38588267 144.63538367 137.18668392 150.85888527 139.98828125 157.08203125 C140.81437382 158.91715401 141.64046434 160.7522777 142.46655273 162.58740234 C143.65641214 165.23061199 144.84631853 167.87380042 146.03640747 170.51690674 C147.12603154 172.9369636 148.21538705 175.3571412 149.3046875 177.77734375 C149.62057327 178.47873978 149.93645905 179.1801358 150.26191711 179.90278625 C150.86551908 181.24410499 151.46736963 182.58621349 152.06732178 183.9291687 C152.74141662 185.42586569 153.42663435 186.91756993 154.11871338 188.40603638 C154.48575378 189.20476166 154.85279419 190.00348694 155.23095703 190.82641602 C155.56886261 191.5527272 155.90676819 192.27903839 156.25491333 193.02735901 C157 195 157 195 157 198 C140.83 198 124.66 198 108 198 C105.03 191.44125 102.06 184.8825 99 178.125 C97.59041016 175.01989014 97.59041016 175.01989014 96.15234375 171.85205078 C95.41376568 170.21660537 94.6754652 168.58103455 93.9375 166.9453125 C93.54884766 166.09187256 93.16019531 165.23843262 92.75976562 164.35913086 C92.39431641 163.54726318 92.02886719 162.73539551 91.65234375 161.89892578 C91.33257568 161.1927713 91.01280762 160.48661682 90.68334961 159.75906372 C90 158 90 158 90 156 C53.04 156 16.08 156 -22 156 C-22.33 157.65 -22.66 159.3 -23 161 C-23.72094727 162.91654968 -23.72094727 162.91654968 -24.56640625 164.7487793 C-24.88343506 165.44267258 -25.20046387 166.13656586 -25.52709961 166.85148621 C-26.0396228 167.95173882 -26.0396228 167.95173882 -26.5625 169.07421875 C-26.9138501 169.83926224 -27.2652002 170.60430573 -27.62719727 171.39253235 C-28.746482 173.82651991 -29.87316114 176.25700192 -31 178.6875 C-31.75829422 180.33376257 -32.51611199 181.9802447 -33.2734375 183.62695312 C-38.6266829 195.25336579 -38.6266829 195.25336579 -40 198 C-56.17 198 -72.34 198 -89 198 C-86.96753998 191.90261995 -84.8839369 186.20572718 -82.21875 180.41015625 C-81.8529483 179.60490509 -81.48714661 178.79965393 -81.11026001 177.97000122 C-79.91094561 175.33227646 -78.70543987 172.69743027 -77.5 170.0625 C-76.65170033 168.19919336 -75.80388998 166.33566388 -74.95654297 164.47192383 C-73.1926746 160.59336074 -71.42670081 156.71576696 -69.65917969 152.83886719 C-65.86639993 144.51592845 -62.09684547 136.18249165 -58.32833862 127.84854126 C-57.1223542 125.18164912 -55.91582341 122.51500466 -54.70922852 119.84838867 C-49.23457225 107.74641688 -43.79048975 95.63113815 -38.36328125 83.5078125 C-31.26755576 67.66047663 -24.1387452 51.82799584 -17 36 C-16.44427307 34.76742462 -16.44427307 34.76742462 -15.87731934 33.50994873 C-13.75061629 28.79375433 -11.62083176 24.07897472 -9.48626709 19.36633301 C-8.83387645 17.92509029 -8.18237267 16.48344578 -7.53179932 15.04138184 C-6.63833374 13.06157706 -5.74151433 11.08332713 -4.84375 9.10546875 C-4.34037109 7.99324951 -3.83699219 6.88103027 -3.31835938 5.73510742 C-2 3 -2 3 0 0 Z M33 35 C27.97943486 44.56382304 23.55770018 54.36241621 19.20288086 64.24365234 C15.92378058 71.68031858 12.60861319 79.09923233 9.2578125 86.50390625 C8.8497084 87.40661255 8.44160431 88.30931885 8.02113342 89.23937988 C6.37730854 92.87512517 4.73339534 96.51081339 3.08334351 100.14373779 C1.92371605 102.69737017 0.76815323 105.25280798 -0.38671875 107.80859375 C-0.73721283 108.57724258 -1.08770691 109.34589142 -1.44882202 110.13783264 C-1.77081573 110.85216965 -2.09280945 111.56650665 -2.42456055 112.30249023 C-2.70591354 112.92276596 -2.98726654 113.54304169 -3.27714539 114.18211365 C-4.17483125 116.32223416 -4.17483125 116.32223416 -5 120 C20.74 120 46.48 120 73 120 C70.9320503 113.7961509 68.78841243 107.99500872 66.078125 102.09375 C65.70093323 101.26262192 65.32374146 100.43149384 64.93511963 99.57518005 C63.71129016 96.88135805 62.48101998 94.19054283 61.25 91.5 C60.39879289 89.63367974 59.54788443 87.76722324 58.69726562 85.90063477 C57.40129924 83.05679531 56.10501461 80.21310716 54.80688477 77.37025452 C52.00977946 71.23924338 49.25088523 65.09240884 46.515625 58.93359375 C45.49916035 56.6558787 44.48170322 54.37861044 43.46374512 52.1015625 C42.82319054 50.66321525 42.18620182 49.22327448 41.55285645 47.78173828 C40.68010007 45.79673626 39.79475183 43.81783651 38.90625 41.83984375 C38.41447266 40.72988037 37.92269531 39.61991699 37.41601562 38.47631836 C36.18940943 35.69281797 36.18940943 35.69281797 33 35 Z " fill="#175E95" transform="translate(2484,83)"/>
<path d="M0 0 C14.85 0 29.7 0 45 0 C45 65.34 45 130.68 45 198 C30.15 198 15.3 198 0 198 C0 132.66 0 67.32 0 0 Z " fill="#175E95" transform="translate(2694,83)"/>
</svg>
