<?xml version="1.0" encoding="utf-8"?>
<!-- Generator: Adobe Illustrator 27.5.0, SVG Export Plug-In . SVG Version: 6.00 Build 0)  -->
<svg version="1.1" id="Layer_1" xmlns="http://www.w3.org/2000/svg" xmlns:xlink="http://www.w3.org/1999/xlink" x="0px" y="0px"
	 viewBox="0 0 500 389.4" style="enable-background:new 0 0 500 389.4;" xml:space="preserve">
<style type="text/css">
	.st0{fill:#EBEBEB;}
	.st1{fill:#F5F5F5;}
	.st2{fill:#E6E6E6;}
	.st3{fill:#F0F0F0;}
	.st4{opacity:0.5;fill:#FFFFFF;enable-background:new    ;}
	.st5{fill:#FAFAFA;}
	.st6{fill:#E0E0E0;}
	.st7{fill:#FFFFFF;}
	.st8{fill:#0063BB;}
	.st9{fill:#7F3E3B;}
	.st10{fill:#263238;}
	.st11{opacity:0.4;fill:#FFFFFF;enable-background:new    ;}
	.st12{opacity:0.2;enable-background:new    ;}
	.st13{fill:#630F0F;}
	.st14{opacity:0.3;enable-background:new    ;}
	.st15{fill:#FFC3BD;}
	.st16{fill:#FF5652;}
	.st17{opacity:0.1;fill:#FFFFFF;enable-background:new    ;}
</style>
<g>
	<g id="freepik--background-complete--inject-30">
		<rect y="344.3" class="st0" width="500" height="0.2"/>
		<rect x="328.9" y="352.2" class="st0" width="33.1" height="0.2"/>
		<rect x="399.8" y="352.3" class="st0" width="41.1" height="0.2"/>
		<rect x="356.8" y="358.9" class="st0" width="19.2" height="0.2"/>
		<rect x="174" y="357" class="st0" width="51.7" height="0.2"/>
		<rect x="130.7" y="357" class="st0" width="34.4" height="0.2"/>
		<rect x="63.3" y="352.8" class="st0" width="46.8" height="0.2"/>
		<path class="st0" d="M237,299.7H43.9c-3.1,0-5.7-2.6-5.7-5.7V22.5c0-3.1,2.6-5.7,5.7-5.7H237c3.2,0,5.7,2.6,5.7,5.7c0,0,0,0,0,0
			V294C242.7,297.1,240.2,299.7,237,299.7z M43.9,17.1c-3,0-5.5,2.4-5.5,5.5V294c0,3,2.4,5.5,5.5,5.5H237c3,0,5.5-2.4,5.5-5.5V22.5
			c0-3-2.4-5.5-5.5-5.5H43.9z"/>
		<path class="st0" d="M453.3,299.7H260.2c-3.2,0-5.7-2.6-5.7-5.7V22.5c0-3.1,2.6-5.7,5.7-5.7h193.1c3.1,0,5.7,2.5,5.7,5.7V294
			C459,297.1,456.5,299.6,453.3,299.7z M260.2,17.1c-3,0-5.5,2.4-5.5,5.5V294c0,3,2.4,5.5,5.5,5.5h193.1c3,0,5.5-2.4,5.5-5.5V22.5
			c0-3-2.4-5.5-5.5-5.5H260.2z"/>
		<rect x="34.8" class="st1" width="139.3" height="271.7"/>
		<polygon class="st0" points="102,271.8 65.7,271.8 65.7,109.4 102,97.5 		"/>
		<polygon class="st2" points="132.3,271.8 96,271.8 96,148.3 132.3,136.4 		"/>
		<polygon class="st2" points="128,144.8 119.3,144.8 119.3,115.4 128,112.5 		"/>
		<rect x="180.1" class="st1" width="139.3" height="271.7"/>
		<rect x="180.1" y="175.2" class="st2" width="40.9" height="96.5"/>
		<rect x="325.9" class="st1" width="139.3" height="271.7"/>
		<polygon class="st0" points="434.9,271.8 405.3,271.8 405.3,76.4 434.9,64.5 		"/>
		<polygon class="st2" points="465.2,271.8 428.9,271.8 428.9,148.3 465.2,136.4 		"/>
		<polygon class="st2" points="335,271.7 407.7,271.7 407.7,175.8 335,166.5 		"/>
		<polygon class="st2" points="460.9,144.8 456.5,144.8 456.5,115.4 460.9,112.5 		"/>
		<polygon class="st2" points="446.7,151.9 442.4,151.9 442.4,122.5 446.7,119.6 		"/>
		<path class="st0" d="M56.6,191.1h16.5l0,0v80.7l0,0H45.8l0,0v-69.9C45.8,195.9,50.6,191.1,56.6,191.1L56.6,191.1z"/>
		<rect x="137.8" y="193.9" class="st0" width="36.3" height="77.8"/>
		<polygon class="st0" points="257.3,206 220.9,193.9 220.9,271.8 257.3,271.8 		"/>
		<polygon class="st2" points="271,206 234.7,193.9 234.7,271.8 271,271.8 		"/>
		<polygon class="st3" points="271,193.6 307.3,181.6 307.3,271.8 271,271.8 		"/>
		<polygon class="st4" points="110.8,271.7 73.4,271.7 150.6,0 188,0 		"/>
		<polygon class="st4" points="223.1,271.7 185.6,271.7 262.8,0 300.2,0 		"/>
		<polygon class="st4" points="269.9,271.7 232.5,271.7 309.6,0 347,0 		"/>
		<polygon class="st4" points="360,271.7 341.3,271.7 418.4,0 437.1,0 		"/>
		<path class="st5" d="M110.8,294.9c10.8-57.9,39.3-85.1,63.5-98.9C151.1,217.9,135.3,293.8,110.8,294.9z"/>
		<path class="st5" d="M87.2,290.3c-8-43.7-27.2-60.7-43.5-68C59.4,236,70.9,293,87.2,290.3z"/>
		<path class="st5" d="M101.2,301.9c-3.1-62.8-27-90.4-48.5-103.6C72.2,220.5,77.7,302.7,101.2,301.9z"/>
		<path class="st5" d="M101.2,296.5c5-63.1,31.7-92.6,55.4-107.6C134.8,212.7,126.6,295.4,101.2,296.5z"/>
		<path class="st5" d="M105.1,306.3c8-64.8-9.7-103.9-27.6-127.4C92,210.6,82.9,296.2,105.1,306.3z"/>
		<path class="st5" d="M130,286.6c20.2-37.8,45.5-46.8,65-47.7C174.4,246.1,146.8,295,130,286.6z"/>
		<path class="st5" d="M125.8,288c12.7-42.8,36.8-61,56.6-69.4C162.8,233.3,144.9,289.2,125.8,288z"/>
		<path class="st5" d="M103.5,306.5c21.8-67.1,11.9-108.5-1.4-133.7C110.2,206.4,83,295.1,103.5,306.5z"/>
		<path class="st1" d="M66.6,282.4v42.2c0,10.8,19.5,19.6,43.3,19.6l0,0c23.8,0,43.3-8.8,43.3-19.6v-42.2H66.6z"/>
		<path class="st6" d="M400,310.3c-2.4-39.8-19.5-58.5-34.9-68C379.1,257.4,383.4,309.6,400,310.3z"/>
		<path class="st6" d="M416.6,307.2c9.2-30,23.9-41.8,35.7-46.8C440.4,269.9,427.6,309.1,416.6,307.2z"/>
		<path class="st6" d="M406.1,315.2c7.5-43.2,26.3-62.1,42.2-71.2C433,259.2,422,315.7,406.1,315.2z"/>
		<path class="st6" d="M406.5,311.5c2-43.4-13.7-63.7-28.6-74C390.8,253.9,389.2,310.7,406.5,311.5z"/>
		<path class="st6" d="M403,318.2c0.1-44.6,15.6-71.4,29.9-87.6C420.2,252.4,419,311.2,403,318.2z"/>
		<path class="st6" d="M387.6,304.7c-10.6-26-27.2-32.2-40.4-32.8C360.7,276.8,375.4,310.5,387.6,304.7z"/>
		<path class="st6" d="M390.4,305.7c-5-29.4-20-41.9-32.8-47.7C369.8,268,377.2,306.5,390.4,305.7z"/>
		<path class="st6" d="M404.1,318.4c-9.1-46.2,1.2-74.6,12.5-91.9C408.1,249.5,419.1,310.5,404.1,318.4z"/>
		<path class="st1" d="M429.3,301.9v29c0,7.4-13.4,13.5-29.7,13.5l0,0c-16.3,0-29.7-6.1-29.7-13.5v-29H429.3z"/>
	</g>
	<g id="freepik--Shadow--inject-30">
		<ellipse id="freepik--path--inject-30" class="st1" cx="250" cy="378.1" rx="193.9" ry="11.3"/>
	</g>
	<g id="freepik--Contract--inject-30">
		<path class="st7" d="M267,90.8v13.1c0,1.9-1.6,3.5-3.5,3.5h-32.2c-1.9,0-3.5-1.6-3.5-3.5V56.3c0-1.9,1.6-3.5,3.5-3.5h32.1
			c1.9,0,3.5,1.5,3.5,3.5c0,0,0,0,0,0v20.7"/>
		<path class="st8" d="M263.5,107.9h-32.1c-2.2,0-4-1.8-4-4V56.3c0-2.2,1.8-4,4-4h32.1c2.2,0,4,1.8,4,4v20.7h-1.1V56.3
			c0-1.7-1.3-3-3-3h-32.1c-1.7,0-3,1.3-3,3v47.5c0,1.7,1.3,3,3,3h32.1c1.7,0,3-1.3,3-3V90.8h1.1v13.1c0,2.2-1.7,4-3.9,4.1
			C263.5,107.9,263.5,107.9,263.5,107.9z"/>
		<path class="st6" d="M245,100.9c0.7-0.4,1.3-0.8,2.1-1.1c0.3-0.1,0.7-0.3,1-0.4c0.4-0.2,0.8-0.2,1.2-0.3l-0.4-0.2
			c-0.1-0.1-0.1,0.2-0.1,0.2l-0.1,0.4c-0.1,0.2-0.2,0.5-0.2,0.8c-0.1,0.3,0.1,0.7,0.4,0.8c0.1,0,0.1,0,0.2,0c1-0.2,2.1-0.6,3-1.2
			h-0.4c0.1,0,0.2,0.1,0.4,0.2c0.2,0.1,0.3,0.1,0.5,0.1c0.4,0,0.8-0.1,1.2,0c0.6,0.1,0.6-0.9,0-0.9c-0.4,0-0.8,0.1-1.2,0
			s-0.5-0.4-0.9-0.2s-0.8,0.4-1.2,0.6c-0.2,0.1-0.4,0.2-0.6,0.2l-0.4,0.1c-0.1,0-0.3,0-0.1,0.2l0.1,0.3c0-0.6,0.7-1.2,0.5-1.9
			s-1-0.4-1.5-0.2c-1.3,0.4-2.6,1-3.8,1.7c-0.2,0.1-0.3,0.4-0.2,0.6S244.7,101,245,100.9L245,100.9z"/>
		<rect x="231.6" y="59.9" class="st6" width="31.6" height="1.1"/>
		<rect x="231.6" y="67.4" class="st6" width="28.1" height="1.1"/>
		<rect x="231.6" y="74.9" class="st6" width="31.6" height="1.1"/>
		<rect x="231.6" y="82.3" class="st6" width="8.7" height="1.1"/>
		<rect x="243.9" y="82.3" class="st6" width="11.6" height="1.1"/>
		<rect x="231.6" y="89.8" class="st6" width="31.6" height="1.1"/>
		<path class="st8" d="M235.9,103.1c-2.7,0-4.9-2.2-4.9-4.9c0-2.7,2.2-4.9,4.9-4.9c2.7,0,4.9,2.2,4.9,4.9S238.6,103.1,235.9,103.1
			C235.9,103.1,235.9,103.1,235.9,103.1z M235.9,94.4c-2.1,0-3.8,1.7-3.8,3.8c0,2.1,1.7,3.8,3.8,3.8c2.1,0,3.8-1.7,3.8-3.8
			c0,0,0,0,0,0C239.7,96.1,238,94.4,235.9,94.4z"/>
		<path class="st8" d="M238.8,98.2c0,1.6-1.3,2.9-2.9,2.9c-1.6,0-2.9-1.3-2.9-2.9c0-1.6,1.3-2.9,2.9-2.9c0,0,0,0,0,0
			C237.5,95.3,238.8,96.6,238.8,98.2z"/>
		<path class="st8" d="M255.1,97.4c0.2-1.4,0.7-2.7,1.4-3.8c0.7-1.1,1.6-2,2.4-3.1c1.6-2,3.3-4,5-6c3.4-3.9,6.8-7.8,10.5-11.5
			c0.2-0.2,0.6-0.2,0.8,0.1c0.1,0.2,0.2,0.4,0.1,0.6c-2.7,4.5-5.7,8.7-8.8,12.9c-1.5,2.1-3.1,4.1-4.7,6.2c-0.8,1-1.5,2.1-2.5,3
			c-0.9,1-2.1,1.8-3.4,2.3c-0.3,0.1-0.7-0.1-0.8-0.4C255.1,97.5,255.1,97.4,255.1,97.4z"/>
		
			<rect x="250.4" y="135.5" transform="matrix(0.7537 -0.6572 0.6572 0.7537 -26.6534 200.922)" class="st8" width="8.7" height="1.1"/>
		
			<rect x="242.6" y="129.7" transform="matrix(0.2187 -0.9758 0.9758 0.2187 67.4753 344.6708)" class="st8" width="12.7" height="1.1"/>
		
			<rect x="241" y="133" transform="matrix(0.7299 -0.6835 0.6835 0.7299 -27.5323 201.7197)" class="st8" width="1.1" height="5.4"/>
	</g>
	<g id="freepik--character-2--inject-30">
		<polygon class="st9" points="317.1,370.2 308.5,370.2 307.5,350.5 316,350.5 		"/>
		<polygon class="st9" points="360,370.2 351.5,370.2 348.1,350.5 356.6,350.5 		"/>
		<path class="st10" d="M350.9,369.2h9.5c0.3,0,0.6,0.2,0.7,0.6l1.3,7.6c0.1,0.7-0.4,1.4-1.1,1.5c-0.1,0-0.1,0-0.2,0
			c-3.3-0.1-4.9-0.3-9.1-0.3c-2.6,0-9.5,0.3-13.1,0.3s-3.9-3.5-2.4-3.9c6.6-1.4,10.8-3.4,13-5.3
			C349.9,369.3,350.4,369.2,350.9,369.2z"/>
		<path class="st10" d="M308.3,369.2h9.3c0.3,0,0.6,0.2,0.7,0.6l1.3,7.6c0.1,0.7-0.4,1.4-1.1,1.5c-0.1,0-0.1,0-0.2,0
			c-3.3-0.1-8.2-0.3-12.4-0.3c-4.9,0-6.2,0.3-12,0.3c-3.5,0-4.3-3.5-2.8-3.9c6.7-1.5,9.1-1.6,15.1-5.1
			C306.9,369.4,307.6,369.2,308.3,369.2z"/>
		<path class="st9" d="M308.1,105.3l-11.6-3.4c0,0-11.8,28.1-15.9,30c-5.5,2.5-20,10.2-26.2,13.8c-0.4,1.4-0.4,5.2,0.2,6.3
			c10.1-0.8,30.8-7.6,34.8-11.5C298.5,131.8,308.1,105.3,308.1,105.3z"/>
		<path class="st8" d="M311.6,100c3.3,7.4-19.4,39.6-19.4,39.6l-11-11.4c0,0,9.7-24.4,15-33.8C301.6,84.8,308,91.9,311.6,100z"/>
		<path class="st11" d="M311.6,100c3.3,7.4-19.4,39.6-19.4,39.6l-11-11.4c0,0,9.7-24.4,15-33.8C301.6,84.8,308,91.9,311.6,100z"/>
		<path class="st8" d="M280.4,127.2c-0.7,0.4-2.2,3.1-2.5,4.4s7.4,11.7,10.4,11.3s6.5-3.4,7.1-4.9S281.9,126.3,280.4,127.2z"/>
		<path class="st9" d="M255.7,145l-7-1.3l0.4,10c0,0,2.5,1,7.8-2.3L255.7,145z"/>
		<polygon class="st9" points="240.3,147.1 241.6,153.2 249.1,153.8 248.7,143.7 		"/>
		<polygon class="st12" points="307.5,350.5 308,360.6 316.5,360.6 316,350.5 		"/>
		<polygon class="st12" points="356.6,350.5 348.1,350.5 349.8,360.6 358.4,360.6 		"/>
		<path class="st8" d="M300.8,89.9c0,0-11.4,29.2-4.1,77.1h45.5c0.6-7-2-44.6,6.3-77.5c-5-1-10.1-1.6-15.1-1.9
			c-6.4-0.4-12.9-0.4-19.3,0C309.5,88,305.1,88.8,300.8,89.9z"/>
		<path class="st12" d="M300.8,89.9c0,0-11.4,29.2-4.1,77.1h45.5c0.6-7-2-44.6,6.3-77.5c-5-1-10.1-1.6-15.1-1.9
			c-6.4-0.4-12.9-0.4-19.3,0C309.5,88,305.1,88.8,300.8,89.9z"/>
		<path class="st12" d="M338.2,97.6c-1,5.4,0.1,18.4,4.5,33.3c0.5-12.9,2.2-25.6,5-38.2v-0.1C344.7,92.4,339.1,92.5,338.2,97.6z"/>
		<path class="st9" d="M331.6,69.5c-1.5,6.2-2.5,13.9,1.7,18.1c0,0-2.8,6.3-14.4,6.3c-10.6,0-5-6.3-5-6.3c7-1.7,7.1-10.2,6.1-15.1
			L331.6,69.5z"/>
		<path class="st8" d="M319,93.9c6.8,2.1,8.2,4.3,8.2,4.3s8.5-3.4,8.2-10.9c-1-0.8-2.1-1.4-3.3-1.9C332,85.3,331.3,90.9,319,93.9z"
			/>
		<path class="st8" d="M319,93.9c-3.8,0.4-7,3.6-7,3.6s-2.4-2.6-0.1-9.9c0,0,2.3-0.8,4.1-1.2C316,86.4,314.5,92.3,319,93.9z"/>
		<path class="st12" d="M320.1,72.5c0.6,2.8,0.8,7-0.5,10.2c1.1-0.2,2.2-0.5,3.1-1c4-1.8,6.1-4.8,8.3-9c0.2-1.1,0.4-2.2,0.7-3.2
			L320.1,72.5z"/>
		<path class="st10" d="M318.7,49.6c-2.7,0.9-8.8,6.1-3,8.7S323.5,48.1,318.7,49.6z"/>
		<path class="st9" d="M337.1,61.9c-2.6,8.2-3.8,13-9,16.4c-7.8,5-16.9-1-16.7-9.6c0.2-7.8,4.5-19.8,13.3-21.4
			S339.7,53.7,337.1,61.9z"/>
		<path class="st10" d="M324.3,52.9c-4.5,0.8-8.2,0.5-9.6-3.2s4.8-7.7,9.1-5.9c3.1-3.3,11.8-0.8,12.9,2.4c5-0.3,9.7,5.4,6.3,8.4
			c2.8,1.7,3.6,5.4,1.9,8.2c-0.3,0.4-0.6,0.8-0.9,1.1c1.5,4.3-3.8,8.7-8,6.9c-4.1-1.2-6.3-0.2-6.9-2.9s0.9-5.2,4.4-5.7
			c-1.8-2.1-2.2-5.4-1-6.8C328.3,57.3,324.8,54.9,324.3,52.9z"/>
		<path class="st10" d="M318.9,70.5c1.6,0.1,3.2-0.4,4.4-1.4c0.1-0.1,0.1-0.2,0-0.3c-0.1-0.1-0.2-0.1-0.3,0c0,0,0,0,0,0
			c-1.4,1.1-3.1,1.6-4.9,1.2c-0.1,0-0.2,0.1-0.2,0.2c0,0.1,0,0.2,0.1,0.2c0,0,0,0,0,0C318.3,70.5,318.6,70.5,318.9,70.5z"/>
		<path class="st9" d="M337.5,73.1c-1.7,1.3-3.9,1.9-6,1.7c-2.8-0.3-3-3.1-1.2-5.1c1.6-1.9,4.9-4,7.3-2.6S339.6,71.5,337.5,73.1z"/>
		<path class="st8" d="M326.6,167c0,0-1.2,10.7-2.6,25.2c-1.7,16.4-3.8,37.8-5.1,54c0,0.1,0,0.1,0,0.2c-0.3,3.1-0.5,6-0.7,8.6
			c-1.9,26.5,1.5,103.6,1.5,103.6h-14.4c0,0-13.3-78.7-13-105.7c0.3-25.9,4.4-86,4.4-86L326.6,167z"/>
		<path class="st10" d="M320.8,353c0.1,0-0.2,5.9-0.2,5.9h-16.6l-0.4-6.5L320.8,353z"/>
		<path class="st12" d="M324,192.2c-1.7,16.4-3.8,37.8-5.1,54c0,0.1,0,0.1,0,0.2c-3.2-15.4-4.2-34.6-2.9-66.1L324,192.2z"/>
		<path class="st8" d="M312.8,167c0,0,6.6,61.5,10.8,85.8c4.5,26.7,22.4,105.9,22.4,105.9h15.6c0,0-10.5-77-12.6-103.4
			c-2.2-28.7-6.8-88.2-6.8-88.2L312.8,167z"/>
		<path class="st10" d="M361.8,353.4c0.1,0,0.5,5.6,0.5,5.6h-17.1l-1.2-6.2L361.8,353.4z"/>
		<path class="st10" d="M322.9,61.5c-0.2,0.7-0.7,1.1-1.1,1s-0.6-0.7-0.5-1.4s0.7-1.1,1.1-1S323.1,60.9,322.9,61.5z"/>
		<path class="st10" d="M315.5,59.9c-0.2,0.7-0.7,1.1-1.1,1s-0.6-0.7-0.5-1.4s0.7-1.1,1.1-1S315.6,59.2,315.5,59.9z"/>
		<path class="st13" d="M318.9,60.7c-1.3,1.9-2.9,3.6-4.6,5.1c0.9,1.4,3,1.3,3,1.3L318.9,60.7z"/>
		<path class="st10" d="M327,59.5c-0.1,0-0.2-0.1-0.3-0.2c-0.4-0.9-1.2-1.6-2.1-1.9c-0.2,0-0.4-0.2-0.3-0.4c0,0,0,0,0,0
			c0-0.2,0.2-0.4,0.5-0.3c1.2,0.3,2.3,1.1,2.7,2.3c0.1,0.2,0,0.4-0.2,0.5C327.2,59.5,327.1,59.6,327,59.5z"/>
		<path class="st10" d="M314,56.4c-0.1,0-0.1-0.1-0.1-0.1c-0.2-0.2-0.2-0.4,0-0.6c0,0,0,0,0,0c0.9-1,2.1-1.5,3.5-1.4
			c0.2,0,0.4,0.2,0.3,0.4c0,0,0,0,0,0c0,0.2-0.2,0.4-0.5,0.3l0,0c-1-0.1-2.1,0.3-2.7,1.1C314.3,56.4,314.2,56.5,314,56.4z"/>
		<path class="st9" d="M353.5,101.1l-10.7,6.5c0,0,12,26,11.9,30.4c-0.2,8.2,3.3,25.9,2.4,35.2c1.3,0.5,5,0.6,6.2-0.1
			c2.1-8.4,5.1-30.6,4.2-36.1C365.6,124.9,353.5,101.1,353.5,101.1z"/>
		<path class="st8" d="M348.5,89.5c8,1.2,19.4,41.8,19.4,41.8l-14.8,5.6c0,0-12.9-22-16-31.9C333.6,94.6,339.9,88.2,348.5,89.5z"/>
		<path class="st11" d="M348.5,89.5c8,1.2,19.4,41.8,19.4,41.8l-14.8,5.6c0,0-12.9-22-16-31.9C333.6,94.6,339.9,88.2,348.5,89.5z"/>
		<path class="st8" d="M348,370.7c-0.6,0-1.1-0.1-1.6-0.4c-0.3-0.3-0.4-0.7-0.4-1.1c0-0.2,0.2-0.5,0.4-0.6c1-0.5,3.6,1.2,3.9,1.4
			c0.1,0,0.1,0.1,0.1,0.2c0,0.1-0.1,0.1-0.2,0.2C349.5,370.5,348.8,370.6,348,370.7z M346.8,368.9c-0.1,0-0.2,0-0.3,0
			c-0.1,0-0.1,0.1-0.1,0.2c-0.1,0.3,0,0.6,0.2,0.7c0.4,0.4,1.5,0.4,3,0.1C348.8,369.5,347.8,369.1,346.8,368.9z"/>
		<path class="st8" d="M350.2,370.3C350.2,370.4,350.1,370.4,350.2,370.3c-0.9-0.5-2.6-2.3-2.3-3.3c0.1-0.3,0.3-0.5,0.7-0.5
			c0.3,0,0.6,0.1,0.9,0.2c1,0.8,1,3.3,1,3.4C350.4,370.2,350.3,370.3,350.2,370.3C350.3,370.4,350.2,370.4,350.2,370.3z
			 M348.6,366.9L348.6,366.9c-0.4,0-0.4,0.2-0.4,0.2c-0.1,0.6,0.9,2,1.7,2.6c0-1-0.3-1.9-0.9-2.7C349,366.9,348.8,366.9,348.6,366.9
			z"/>
		<path class="st8" d="M304.7,370.7c-0.7,0.1-1.4-0.1-2-0.5c-0.3-0.3-0.4-0.6-0.3-1c0-0.2,0.2-0.4,0.4-0.5c1.1-0.6,4.4,1.2,4.8,1.4
			c0.1,0,0.1,0.1,0.1,0.2c0,0.1-0.1,0.2-0.2,0.2C306.5,370.5,305.6,370.6,304.7,370.7z M303.3,368.9c-0.1,0-0.3,0-0.4,0.1
			c-0.1,0-0.1,0.1-0.1,0.2c0,0.2,0,0.5,0.2,0.6c0.5,0.5,1.9,0.5,3.8,0.2C305.7,369.4,304.5,369,303.3,368.9z"/>
		<path class="st8" d="M307.4,370.3L307.4,370.3c-1.1-0.5-3.1-2.3-2.8-3.3c0-0.2,0.2-0.5,0.8-0.6c0.4-0.1,0.8,0.1,1.1,0.3
			c1,0.9,1.2,3.2,1.2,3.3c0,0.1,0,0.1-0.1,0.2C307.5,370.4,307.4,370.4,307.4,370.3z M305.5,366.9h-0.1c-0.4,0-0.4,0.2-0.4,0.2
			c-0.1,0.6,1.2,2,2.2,2.6c-0.1-1-0.4-1.9-1-2.6C306,366.9,305.7,366.9,305.5,366.9z"/>
		<path class="st10" d="M331.5,188l51.1-6.7c2.2-0.3,4.3,1.3,4.6,3.5l4.4,33.4c0.3,2.2-1.3,4.3-3.5,4.6l-51.1,6.7
			c-2.2,0.3-4.3-1.3-4.6-3.5l-4.4-33.4C327.7,190.4,329.3,188.3,331.5,188z"/>
		<path class="st14" d="M331.5,188l51.1-6.7c2.2-0.3,4.3,1.3,4.6,3.5l4.4,33.4c0.3,2.2-1.3,4.3-3.5,4.6l-51.1,6.7
			c-2.2,0.3-4.3-1.3-4.6-3.5l-4.4-33.4C327.7,190.4,329.3,188.3,331.5,188z"/>
		<path class="st10" d="M354.7,192.4c-0.9,0-1.7-0.3-2.4-0.8c-0.8-0.6-1.4-1.6-1.5-2.6l-0.9-6.9c-0.3-2.1,1.2-4.1,3.3-4.3
			c0,0,0,0,0,0l11.5-1.5c2.1-0.3,4.1,1.2,4.4,3.4l0.9,6.9c0.3,2.1-1.2,4.1-3.4,4.4l0,0l-11.6,1.5C355,192.4,354.9,192.4,354.7,192.4
			z M365.4,178.4h-0.2l-11.6,1.5c-0.9,0.1-1.5,0.9-1.4,1.8c0,0,0,0,0,0l0.9,6.9c0.1,0.4,0.3,0.8,0.6,1.1c0.3,0.3,0.8,0.4,1.2,0.3
			l11.5-1.5c0.9-0.1,1.5-0.9,1.4-1.8l-0.9-6.9c-0.1-0.4-0.3-0.8-0.6-1.1C366.1,178.5,365.7,178.4,365.4,178.4L365.4,178.4z
			 M366.6,189.7L366.6,189.7z"/>
		<path class="st10" d="M336.4,187.4l51.1-6.7c2.2-0.3,4.3,1.3,4.6,3.5l4.4,33.4c0.3,2.2-1.3,4.3-3.5,4.6l-51.1,6.7
			c-2.2,0.3-4.3-1.3-4.6-3.5l-4.4-33.4C332.6,189.7,334.2,187.7,336.4,187.4z"/>
		<path class="st9" d="M357.5,171.7l-3.3,6.4l9.6,0.4c1.4-2.8,0.9-6.3-1.2-8.6L357.5,171.7z"/>
		<path class="st9" d="M357.9,183l5.7-0.8l0.2-3.7l-9.6-0.4l0.1,2.1c0.1,1.7,1.6,3,3.3,2.9C357.8,183,357.8,183,357.9,183z"/>
		<path class="st8" d="M350.8,134.6c-0.1,0.8,0.9,3.7,1.7,4.8s13.7,2.1,15.3-0.4s1.7-7.1,0.9-8.6S351.1,132.9,350.8,134.6z"/>
	</g>
	<g id="freepik--character-1--inject-30">
		<path class="st10" d="M162.4,103.3c-1.6,2.1-3.4,4.4-5,6.7s-3.2,4.6-4.7,6.9c-3,4.5-5.6,9.2-7.8,14.2c-0.2,0.6-0.5,1.2-0.7,1.8
			c-0.1,0.3-0.2,0.6-0.3,0.9l-0.1,0.4l-0.1,0.2v0.1c-0.2,0.8-0.2,1.6-0.1,2.3c0.3,2.5,0.9,5,1.8,7.4c1.7,5.2,4,10.5,6.2,15.7
			l-5.1,3.2c-3.8-4.7-7.2-9.9-9.9-15.3c-1.5-2.9-2.7-6-3.4-9.2c-0.5-2.1-0.6-4.2-0.2-6.3l0.1-0.5l0.1-0.3l0.1-0.6
			c0.1-0.4,0.2-0.8,0.3-1.2c0.2-0.8,0.5-1.6,0.7-2.4c2.1-5.9,4.8-11.5,8.1-16.8c1.6-2.6,3.2-5.1,5-7.6s3.5-4.8,5.5-7.3L162.4,103.3z
			"/>
		<path class="st15" d="M150.2,158.1l5.3,2.8l-6,7.1c0,0-3.8-2.6-4-6.5L150.2,158.1z"/>
		<polygon class="st15" points="162.6,165.2 156.1,170.4 149.4,167.9 155.5,160.9 		"/>
		<path class="st15" d="M241.2,142.9l6.2,3.2l-0.6,2.2l-5,5c0,0-3.6-2.8-3.5-6.7L241.2,142.9z"/>
		<polygon class="st15" points="242.1,143.7 247.8,142.7 251.4,144.2 249,144.6 247.4,146.1 		"/>
		<path class="st15" d="M253.6,154.1l-6.2,1.3c-0.6,0.1-1.3,0.1-1.9-0.2l-3.7-1.8l5-5l3.3-1l4.1,4.8c0.4,0.5,0.3,1.3-0.2,1.7
			C254,153.9,253.8,154,253.6,154.1z"/>
		<path class="st10" d="M185.2,62.8c0.1,0.7,0.6,1.1,1,1s0.7-0.7,0.6-1.4s-0.6-1.1-1-1S185,62.1,185.2,62.8z"/>
		<path class="st16" d="M185.7,63.9c1.2,1.9,2.7,3.6,4.4,5.1c-1,1.3-3.1,1.2-3.1,1.2L185.7,63.9z"/>
		<path class="st10" d="M182,59.6c-0.1,0-0.2,0-0.3-0.1c-0.2-0.2-0.2-0.4,0-0.6c0.9-1,2.1-1.5,3.4-1.3c0.2,0.1,0.3,0.3,0.3,0.5
			c-0.1,0.2-0.2,0.3-0.4,0.3l0,0c-1-0.1-2,0.3-2.7,1.1C182.2,59.5,182.1,59.6,182,59.6z"/>
		<path class="st15" d="M167,74.7c1.2,5.9,1.9,14.1-2.3,18c0,0,1.6,6,12.6,6c12.1,0,5.8-5.3,5.8-5.3c-5-1.6-5-7.3-3.8-11.8L167,74.7
			z"/>
		<path class="st8" d="M163,96.7c-1-1.6-0.7-6.4,0.5-7.2c1.9-1.3,9.8-1.1,20.4,2c-1.4,4.6,0.9,7.2,0.9,7.2L163,96.7z"/>
		<path class="st12" d="M154.2,105.2c-3.8,3.7-4.8,11.3-4.4,16.4c0.9-1.6,1.9-3.1,2.9-4.7c1.5-2.4,3.1-4.6,4.7-6.9
			c0.4-0.6,0.9-1.3,1.4-1.9c0.1-0.4,0.2-0.8,0.2-1.2L154.2,105.2z"/>
		<path class="st8" d="M127.6,368.9c0.7,0.2,1.4,0.2,2-0.1c0.2-0.2,0.3-0.6,0.2-0.9c-0.1-0.2-0.3-0.5-0.5-0.6
			c-1.1-0.5-3.6,0.5-3.7,0.5c-0.1,0-0.1,0.1-0.1,0.2c0,0.1,0,0.1,0.1,0.2C126.3,368.5,126.9,368.7,127.6,368.9z M129,367.6l0.2,0.1
			c0.1,0.1,0.2,0.2,0.3,0.3c0.1,0.3,0,0.5-0.1,0.5c-0.4,0.4-2,0-3.2-0.4C127.1,367.7,128.1,367.5,129,367.6L129,367.6z"/>
		<path class="st8" d="M125.7,368.2L125.7,368.2c1-0.3,3-1.6,3-2.6c0-0.3-0.2-0.6-0.5-0.6c-0.3-0.1-0.6-0.1-0.8,0.1
			c-1.1,0.5-1.8,2.8-1.8,2.9c0,0.1,0,0.1,0,0.2C125.6,368.2,125.6,368.2,125.7,368.2z M128,365.3L128,365.3c0.3,0.1,0.3,0.2,0.3,0.2
			c0,0.5-1.3,1.6-2.2,2.1c0.3-0.9,0.8-1.7,1.5-2.3C127.7,365.3,127.8,365.3,128,365.3L128,365.3z"/>
		<path class="st8" d="M187.2,370.2c1,0,2-0.1,2.4-0.6c0.2-0.2,0.2-0.6,0-0.8c-0.1-0.2-0.4-0.4-0.6-0.5c-1.3-0.4-4.2,1.2-4.3,1.3
			c-0.1,0-0.1,0.1-0.1,0.2c0,0.1,0.1,0.1,0.1,0.2C185.5,370.1,186.4,370.2,187.2,370.2z M188.5,368.6c0.1,0,0.2,0,0.4,0
			c0.2,0,0.3,0.1,0.4,0.3c0.1,0.2,0.1,0.3,0,0.4c-0.4,0.5-2.4,0.5-3.9,0.3C186.3,369.1,187.4,368.7,188.5,368.6z"/>
		<path class="st8" d="M184.8,370L184.8,370c1.1-0.4,3-2.2,2.8-3.1c0-0.2-0.2-0.5-0.7-0.5c-0.4,0-0.8,0.1-1.1,0.3
			c-1,0.9-1.2,3-1.3,3.1c0,0.1,0,0.1,0.1,0.2C184.7,370,184.7,370,184.8,370z M186.8,366.7h0.1c0.3,0,0.4,0.2,0.4,0.2
			c0.1,0.5-1.2,1.9-2.2,2.5c0.1-0.9,0.5-1.8,1.1-2.5C186.3,366.8,186.5,366.7,186.8,366.7L186.8,366.7z"/>
		<polygon class="st15" points="175.9,369.8 183.9,369.8 184.8,351.1 176.7,351.1 		"/>
		<polygon class="st15" points="116.8,366.3 124.6,368 131.7,350.1 123.9,348.5 		"/>
		<path class="st10" d="M125.3,367l-8.9-1.9c-0.3-0.1-0.6,0.1-0.8,0.4l-3.1,6.7c-0.3,0.6,0,1.3,0.6,1.6c0.1,0,0.2,0.1,0.3,0.1
			c3.1,0.6,4.7,0.8,8.5,1.6c2.4,0.5,7.8,1.8,11.1,2.5c3.3,0.7,4.4-2.5,3.1-3c-5.8-2.6-8.2-5-9.8-7.1
			C126.2,367.3,125.8,367,125.3,367z"/>
		<path class="st10" d="M183.9,368.9h-8.8c-0.3,0-0.6,0.2-0.7,0.5l-1.6,7.2c-0.1,0.6,0.3,1.3,0.9,1.4c0.1,0,0.2,0,0.3,0
			c3.2-0.1,7.8-0.2,11.8-0.2c4.7,0,6.3,0.2,11.8,0.2c3.3,0,4.2-3.3,2.9-3.7c-6.3-1.4-9.1-1.5-14.5-4.9
			C185.3,369.1,184.6,368.9,183.9,368.9z"/>
		<polygon class="st12" points="184.8,351.1 184.3,360.7 176.3,360.7 176.7,351.1 		"/>
		<polygon class="st12" points="123.9,348.5 131.7,350.1 128,359.3 120.2,357.7 		"/>
		<path class="st10" d="M181.7,164.6c0,0-9.2,61.6-14.2,84.7c-5.5,25.3-35,109-35,109l-14.5-3.2c0,0,20.6-68.2,25.2-103.5
			c3.6-27.1,10.5-87,10.5-87L181.7,164.6z"/>
		<path class="st17" d="M181.7,164.6c0,0-9.2,61.6-14.2,84.7c-5.5,25.3-35,109-35,109l-14.5-3.2c0,0,20.6-68.2,25.2-103.5
			c3.6-27.1,10.5-87,10.5-87L181.7,164.6z"/>
		<path class="st10" d="M135.9,353.5c0.1,0-2.7,5.2-2.7,5.2l-16.2-3.5l1.4-4.9L135.9,353.5z"/>
		<path class="st14" d="M175.9,186.6c-10.6,2.1-9.5,41.6-8.2,61.8c3-14.4,7.5-42,10.6-61.6C177.5,186.5,176.7,186.4,175.9,186.6z"/>
		<path class="st10" d="M197,164.6c0,0,1.1,60.3,0.2,84.9c-0.9,25.6-9.8,109.3-9.8,109.3h-13.7c0,0-0.5-82.3-1.1-107.4
			c-0.7-27.4-4-86.9-4-86.9H197z"/>
		<path class="st17" d="M197,164.6c0,0,1.1,60.3,0.2,84.9c-0.9,25.6-9.8,109.3-9.8,109.3h-13.7c0,0-0.5-82.3-1.1-107.4
			c-0.7-27.4-4-86.9-4-86.9H197z"/>
		<path class="st10" d="M190,353.4c0.1,0-0.8,5.7-0.8,5.7h-16.6l-0.4-5.1L190,353.4z"/>
		<path class="st10" d="M198.1,102.6c1.6,8.7,4.7,33.1-0.1,68.5l-46.7-0.7c-0.3-6.2,4.6-39.8,0.1-69.6c-0.5-3.5,1.9-6.8,5.4-7.3
			c0,0,0.1,0,0.1,0c2.4-0.3,5.1-0.6,7.8-0.8c6.1-0.4,12.2-0.4,18.3,0c2,0.2,4,0.5,5.8,0.8C193.5,94.3,197.2,97.9,198.1,102.6z"/>
		<path class="st12" d="M199.3,111.2l-7.9,1.9c-0.6,7.3,4.2,15.6,9.1,22C200.6,127.2,200.2,119.2,199.3,111.2z"/>
		<path class="st10" d="M196.1,98.6c1.3,2.4,2.8,5,4.2,7.4s3,4.9,4.5,7.3c2.9,4.7,6.3,9.2,10,13.3c0.5,0.5,0.9,0.9,1.4,1.4l0.3,0.3
			l0.3,0.2c0.1,0.2,0.4,0.3,0.6,0.5c0.9,0.7,2,1.5,3.2,2.2c2.4,1.4,4.9,2.9,7.4,4.2c5.1,2.8,10.4,5.4,15.6,8.2l-2.1,5.7
			c-5.9-1.4-11.7-3.2-17.4-5.3c-2.9-1.1-5.7-2.2-8.6-3.6c-1.5-0.7-3-1.5-4.4-2.5c-0.4-0.3-0.8-0.5-1.2-0.8l-0.6-0.5l-0.5-0.4
			c-0.7-0.5-1.3-1.1-1.9-1.7c-2.4-2.2-4.6-4.6-6.6-7.1c-2-2.4-3.9-5-5.6-7.5s-3.4-5.1-5-7.8s-3.1-5.2-4.5-8.1L196.1,98.6z"/>
		<path class="st15" d="M162.5,65.9c2.2,8.1,3,13,8.1,16.4c7.6,5.1,17-0.8,17.3-9.4c0.3-7.8-3.4-19.8-12.1-21.4
			c-6.2-1.2-12.3,2.9-13.5,9.1C161.9,62.4,162,64.2,162.5,65.9z"/>
		<path class="st10" d="M179.4,66c1.9-2.8,2.7-7.2,1.3-9.3c1.3,0.5,10.4,1.2,6.8-5.4s-10.8-8.3-17.1-6.5l3.1,0.9
			c0,0-8.6-0.6-12.7,2.8c1.3,0.1,2.4,0,2.4,0s-9.2,4.3-5.2,7.6c-6.4,4.9-2.1,11.7,8.5,21.8c1.9,1.7,7.1,1.1,8.2,0.1
			C174.1,73.6,178.3,67.6,179.4,66z"/>
		<path class="st10" d="M180.5,60.5c1.9,1.4,4.2,5.5,5.3,7.5s2.2,1.8,2.8,2.6s2.8,14.5,0.4,16.7s-9.7-1.3-10.6-3.8s0.8-8.7,1.3-10.1
			c0.5-2.4,0.3-5-0.4-7.3C178.4,63.7,180.5,60.5,180.5,60.5z"/>
		<path class="st15" d="M176.2,66.4c0.5,2,1.8,3.7,3.6,4.8c2.2,1,2.5-1.6,2.1-4c-0.4-2.2-1-4-2.8-4.9C177,61.2,175.5,64,176.2,66.4z
			"/>
	</g>
</g>
</svg>
