<?xml version="1.0" encoding="UTF-8"?>
<svg id="Layer_1" data-name="Layer 1" xmlns="http://www.w3.org/2000/svg" viewBox="0 0 500 483.2">
  <defs>
    <style>
      .cls-1 {
        fill: none;
        stroke-linecap: round;
        stroke-linejoin: round;
      }

      .cls-1, .cls-2 {
        stroke: #fafafa;
      }

      .cls-3 {
        fill: #0075d1;
      }

      .cls-4 {
        fill: #ebebeb;
      }

      .cls-5 {
        fill: #eb996e;
      }

      .cls-6 {
        fill: #f5f5f5;
      }

      .cls-7 {
        fill: #fff;
      }

      .cls-8, .cls-2 {
        fill: #fafafa;
      }

      .cls-9 {
        fill: #ffbe9d;
      }

      .cls-10 {
        fill: #e0e0e0;
      }

      .cls-11 {
        fill: #455a64;
      }

      .cls-12 {
        fill: #263238;
      }

      .cls-2 {
        stroke-miterlimit: 10;
      }

      .cls-13 {
        opacity: .38;
      }
    </style>
  </defs>
  <g id="freepik--background-complete--inject-64">
    <rect class="cls-10" x="37.8" y="40.8" width="165.3" height="228"/>
    <rect class="cls-2" x="44.9" y="46.5" width="149.2" height="215.4"/>
    <rect class="cls-10" x="44.2" y="108.3" width="152.6" height="3.4"/>
    <rect class="cls-10" x="117.7" y="108.3" width="3.4" height="154.6"/>
    <rect class="cls-10" x="12.3" y="19.4" width="217.1" height="4.2"/>
    <path class="cls-4" d="m12.3,33.9s2,228,.1,228h42.9V33.9s-43,0-43,0Z"/>
    <path class="cls-10" d="m23.1,38.8c-.3-3.2-.4-6.3-.3-9.5-.1-3.2,0-6.3.3-9.5.3,3.2.4,6.3.3,9.5.1,3.2,0,6.4-.3,9.5Z"/>
    <path class="cls-10" d="m17.3,38.8c-.3-3.2-.4-6.3-.3-9.5-.1-3.2,0-6.3.3-9.5.3,3.2.4,6.3.3,9.5.1,3.2,0,6.4-.3,9.5Z"/>
    <path class="cls-10" d="m29.7,38.8c-.3-3.2-.4-6.3-.3-9.5-.1-3.2,0-6.3.3-9.5.3,3.2.4,6.3.3,9.5.1,3.2,0,6.4-.3,9.5Z"/>
    <path class="cls-10" d="m36.4,38.8c-.3-3.2-.4-6.3-.3-9.5-.1-3.2,0-6.3.3-9.5.3,3.2.4,6.3.3,9.5.1,3.2,0,6.4-.3,9.5Z"/>
    <path class="cls-10" d="m43,38.8c-.3-3.2-.4-6.3-.3-9.5-.1-3.2,0-6.3.3-9.5.3,3.2.4,6.3.3,9.5.1,3.2,0,6.4-.3,9.5Z"/>
    <path class="cls-10" d="m49.4,38.8c-.3-3.2-.4-6.3-.3-9.5-.1-3.2,0-6.3.3-9.5.3,3.2.4,6.3.3,9.5.1,3.2,0,6.4-.3,9.5Z"/>
    <path class="cls-4" d="m185.1,33.9s2,228,.1,228h42.8V33.9s-42.9,0-42.9,0Z"/>
    <path class="cls-10" d="m195.8,38.8c-.3-3.2-.4-6.3-.3-9.5-.1-3.2,0-6.3.3-9.5.3,3.2.4,6.3.3,9.5.1,3.2,0,6.4-.3,9.5Z"/>
    <path class="cls-10" d="m190,38.8c-.3-3.2-.4-6.3-.3-9.5-.1-3.2,0-6.3.3-9.5.3,3.2.4,6.3.3,9.5.1,3.2,0,6.4-.3,9.5Z"/>
    <path class="cls-10" d="m202.5,38.8c-.3-3.2-.4-6.3-.3-9.5-.1-3.2,0-6.3.3-9.5.3,3.2.4,6.3.3,9.5.1,3.2,0,6.4-.3,9.5Z"/>
    <path class="cls-10" d="m209.1,38.8c-.3-3.2-.4-6.3-.3-9.5-.1-3.2,0-6.3.3-9.5.3,3.2.4,6.3.3,9.5.1,3.2,0,6.4-.3,9.5Z"/>
    <path class="cls-10" d="m215.8,38.8c-.3-3.2-.4-6.3-.3-9.5-.1-3.2,0-6.3.3-9.5.3,3.2.4,6.3.3,9.5.1,3.2,0,6.4-.3,9.5Z"/>
    <path class="cls-10" d="m222.1,38.8c-.3-3.2-.4-6.3-.3-9.5-.1-3.2,0-6.3.3-9.5.3,3.2.4,6.3.3,9.5.1,3.2,0,6.4-.3,9.5Z"/>
    <polygon class="cls-4" points="351.1 446.3 351.1 480.6 401.2 480.6 456.4 480.6 456.4 446.3 351.1 446.3"/>
    <polygon class="cls-6" points="346.7 436.8 346.7 446.3 460.1 446.3 460.1 436.8 401.2 436.8 346.7 436.8"/>
    <polygon class="cls-10" points="403.4 480.6 456.4 480.6 456.4 446.3 460.1 446.3 460.1 436.8 401.2 436.8 401.2 445.4 403.4 480.6"/>
    <rect class="cls-10" x="365.9" y="451.9" width="21.4" height="5.1"/>
    <rect class="cls-8" x="363.1" y="463.5" width="27.4" height="10.9"/>
    <polygon class="cls-4" points="377.9 399.2 377.7 386.3 422.8 390.2 424.3 402.9 377.9 399.2"/>
    <rect class="cls-10" x="400.49" y="380.38" width="2.3" height="28.3" transform="translate(-25.69 761.08) rotate(-85.11)"/>
    <polygon class="cls-10" points="372.5 387 372.5 374.1 417.6 378.5 418.7 390 372.5 387"/>
    <polygon class="cls-7" points="372.5 375.9 372.5 384.6 416.4 387.8 415.7 379.8 372.5 375.9"/>
    <path class="cls-10" d="m413.1,383.1c-.5.1-1.1.1-1.6,0l-4.3-.3c-3.6-.3-8.7-.8-14.2-1.3-5.5-.6-10.6-1.1-14.2-1.5l-4.3-.5c-.5,0-1.1-.1-1.6-.3h1.6l4.3.3c3.6.3,8.7.8,14.2,1.4,5.6.6,10.6,1.1,14.2,1.5l4.3.5c.5,0,1,.1,1.6.2Z"/>
    <path class="cls-10" d="m413,384.2c-.5.1-1.1.1-1.6,0l-4.4-.2c-3.7-.2-8.7-.5-14.4-.9-5.6-.4-10.7-.8-14.4-1.1l-4.3-.4c-.5,0-1.1-.1-1.6-.2.5-.1,1.1-.1,1.6,0l4.4.2c3.7.2,8.8.5,14.4.9s10.7.8,14.3,1.1l4.3.4c.6,0,1.1.1,1.7.2Z"/>
    <polygon class="cls-10" points="378.4 411.1 378.2 398.2 423.4 402 424.6 413.5 378.4 411.1"/>
    <path class="cls-6" d="m383.4,411.3c-.4-2.1-.6-4.2-.5-6.3-.2-2.1-.2-4.2.1-6.4.4,2.1.6,4.2.5,6.3.1,2.2.1,4.3-.1,6.4Z"/>
    <path class="cls-6" d="m385.1,398.8c.3,2.1.5,4.2.4,6.3.1,2.1.1,4.2-.2,6.3-.3-2.1-.5-4.2-.4-6.3-.1-2.1-.1-4.2.2-6.3Z"/>
    <path class="cls-7" d="m389.2,404.4c7.9.9,17.1,1.4,25.1,2.1"/>
    <path class="cls-6" d="m414.3,406.5c-1.2.1-2.5,0-3.7-.1-2.3-.1-5.4-.3-8.9-.6-3.5-.3-6.6-.5-8.9-.8-1.2-.1-2.5-.3-3.6-.6,1.2,0,2.5,0,3.7.2l8.9.6c3.5.3,6.6.5,8.9.8,1.2.1,2.4.2,3.6.5Z"/>
    <path class="cls-6" d="m417.6,413.2c-.4-1.9-.6-3.8-.6-5.8-.2-1.9-.2-3.8,0-5.8.4,1.9.6,3.8.6,5.7.2,2,.2,3.9,0,5.9Z"/>
    <path class="cls-6" d="m420.4,413.3c-.5-1.9-.8-3.8-.9-5.7-.3-1.9-.4-3.9-.3-5.8.5,1.9.8,3.8.9,5.7.3,1.9.4,3.8.3,5.8Z"/>
    <path class="cls-7" d="m395.9,407.3c5,.3,8.7.6,12.7.7"/>
    <path class="cls-6" d="m408.6,408c-2.1.2-4.3.2-6.4,0-2.1,0-4.2-.2-6.3-.6,2.1-.2,4.3-.2,6.4,0,2.1,0,4.2.2,6.3.6Z"/>
    <polygon class="cls-10" points="381.4 436.2 380.6 423.4 425.8 424.8 427.7 436.2 381.4 436.2"/>
    <polygon class="cls-8" points="383.2 434.6 427.3 434 426 426 382.4 425.2 383.2 434.6"/>
    <polygon class="cls-4" points="382.7 423.6 382.3 410.8 427.4 413.7 428.9 425.2 382.7 423.6"/>
    <rect class="cls-10" x="405.14" y="404.36" width="2.3" height="28.3" transform="translate(-37.7 796.78) rotate(-86.28)"/>
    <path class="cls-10" d="m426.5,429.3c-.6.1-1.2.1-1.7.1l-4.7.1c-4,.1-9.5.1-15.5.2h-15.5l-4.7-.1c-.6,0-1.2,0-1.7-.1.6-.1,1.1-.1,1.7-.1l4.7-.1c4-.1,9.5-.1,15.5-.1h15.5l4.7.1c.6-.1,1.1-.1,1.7,0Z"/>
    <path class="cls-10" d="m427,431.8c-.6.1-1.2.1-1.7.1h-4.7c-4,0-9.5,0-15.6-.1s-11.6-.2-15.6-.3l-4.8-.1c-.6,0-1.2,0-1.7-.1.6-.1,1.2-.1,1.7-.1h4.7c4,0,9.5,0,15.7.1,6.1.1,11.6.2,15.6.3l4.7.2c.5-.2,1.1-.1,1.7,0Z"/>
    <path class="cls-6" d="m46,350.4c-5.7.9-8.2,7.9-7.7,13.6s2.8,11.3,2.2,17c-.8,7.2-6.3,13.4-6.9,20.6-.7,8.6,5.3,16.1,7.1,24.5.9,4.1.8,8.4,2.3,12.3,3.1,7.9,12,11.8,19.9,8.7,5.8-2.3,9.6-7.8,9.7-14,.1-6.6-3.9-12.8-3.5-19.3.4-4.8,3.2-9.4,2.6-14.2-.7-5.7-6-9.8-7.9-15.3s-.1-11.5-.7-17.2c-1-10.4-6.7-17.6-17.1-16.7"/>
    <path class="cls-4" d="m17.1,400.2c-1,9.5,3.3,20.8,8.2,29,5,8.3,12.5,14.8,21.4,18.5,1,.4,2.2.8,3.1.1.6-.7.9-1.6.8-2.4.1-20.8-13.5-39.2-33.5-45.2"/>
    <path class="cls-10" d="m58.7,467.8c-.1-.2-.2-.3-.3-.5-.2-.4-.4-.9-.7-1.6-.6-1.4-1.4-3.3-2.5-5.7-2.8-6.3-6-12.4-9.5-18.3s-7.3-11.7-11.3-17.3c-1.6-2.1-2.8-3.8-3.8-5l-1-1.4c-.1-.2-.2-.3-.3-.5.2.1.3.3.4.4l1.1,1.3c1,1.2,2.3,2.8,3.9,4.9,4.2,5.5,8,11.3,11.5,17.2,3.5,6,6.6,12.1,9.3,18.5,1,2.4,1.9,4.4,2.3,5.8.2.7.4,1.2.6,1.6.2.2.3.4.3.6Z"/>
    <path class="cls-10" d="m52.6,376.8s0,.3.1.9.1,1.5.2,2.6c.2,2.3.4,5.6.6,9.7.5,8.2,1.2,19.5,2.1,31.9.9,12.5,1.7,23.7,2.3,31.9.3,4,.6,7.3.7,9.7.1,1.1.1,2,.2,2.6v.9c-.1-.3-.1-.6-.1-.9l-.3-2.6c-.2-2.3-.5-5.6-.9-9.7-.7-8.2-1.7-19.4-2.5-31.9-.9-12.5-1.5-23.7-2-31.9-.2-4-.3-7.3-.5-9.7,0-1.1-.1-2-.1-2.6.1-.3.1-.6.2-.9Z"/>
    <path class="cls-10" d="m43.8,454.2h23.9v17.5c0,6.3-5.1,11.5-11.5,11.5h0c-6.1,0-11.1-4.8-11.5-10.9l-.9-18.1Z"/>
    <polygon class="cls-4" points="391.3 38.3 385 96.9 465.9 96.9 472.6 38.3 391.3 38.3"/>
    <polygon class="cls-8" points="394.6 42.5 388.5 93.8 461.5 93.8 467.4 42.5 394.6 42.5"/>
    <polygon class="cls-10" points="406.9 51.2 403.1 85.2 449.2 85.2 451.6 51.2 406.9 51.2"/>
    <polyline class="cls-6" points="469.7 63.6 486.4 97.1 465.9 96.9 469.9 61.4"/>
    <rect class="cls-10" x="479.4" y="103.9" width="7.3" height="18.2"/>
    <rect class="cls-10" x="372.8" y="103.9" width="7.3" height="18.2"/>
    <rect class="cls-10" x="357.9" y="97.3" width="142.1" height="7.7"/>
  </g>
  <g id="freepik--Floor--inject-64">
    <path class="cls-12" d="m477.7,480.9c0,.2-107,.3-238.8.3s-238.9-.1-238.9-.3,106.9-.3,238.9-.3,238.8.2,238.8.3Z"/>
  </g>
  <g id="freepik--Plant--inject-64">
    <path class="cls-3" d="m342.2,312.2c-20.1-14-24.7-40.1-23.9-63.5.1-3.9-.3-8,1.6-11.5,1.9-3.4,6.2-5.8,9.7-4.1,2.9,1.4,4.2,4.7,5.8,7.5,2.2,3.7,5.3,6.8,9.2,8.8,2.5,1.3,5.6,2.1,8,.7,3.4-1.9,3.8-6.5,3.8-10.4l-.1-21.8c0-3.9,0-7.9,1.2-11.5,1.2-3.7,3.9-7.1,7.6-8.2s8.3,1.1,9.1,4.9c.1,1.6.2,3.2.1,4.8.1,1.6.9,3.4,2.4,3.9s3.1-.7,4.3-1.8c4-3.9,6.7-9,9.3-14,2.6-5,5-10.2,8.7-14.5s8.7-7.7,14.2-8c5.6-.3,11.5,3.1,12.9,8.6s-1.8,11-5.3,15.4c-5.2,6.6-11.3,12.4-18.1,17.2-1.3.7-2.4,1.9-3,3.3-.9,2.6,1.6,5.2,4.2,6,2.9,1,6,.7,9.1,1s6.3,1.7,7.5,4.6c1.6,4-1.7,8.2-5,10.9-6.6,5.5-14,9.8-22,12.7-2.9,1-5.8,2-8.2,4-2.3,2-3.7,5.5-2.3,8.2,1.4,2.7,5,3.6,8,3.1s5.7-2.2,8.5-3.3c5.3-2,12.2-1.7,15.7,3,2.2,3,2.4,7.3,1.3,10.9-1.3,3.6-3.3,6.8-5.9,9.6-8.5,10.2-19.5,17.9-31.9,22.4-12.7,4.5-24.2,5.7-36.5,1.1"/>
    <path class="cls-12" d="m420.2,176.9c-.1.1-.2.3-.4.4l-1.2,1c-1,.9-2.5,2.2-4.4,4-5.3,5-10.3,10.3-14.9,16-2.9,3.6-5.9,7.7-9.1,12.1-3.1,4.4-6.5,9.2-9.8,14.4-3.5,5.4-6.7,10.9-9.6,16.6-1.5,3-2.8,6.1-4.2,9.3-1.4,3.2-2.7,6.4-4.1,9.6-5.3,12.2-9.9,24.7-13.9,37.4-3.2,10.4-5.3,21.1-6.5,31.9-.8,7.3-.9,14.6-.4,22,.2,2.6.4,4.6.6,6,.1.7.1,1.2.2,1.5v.5c-.1-.2-.1-.3-.1-.5-.1-.4-.1-.9-.2-1.5-.2-1.4-.5-3.4-.7-6-.6-7.3-.6-14.7.1-22,1.1-10.9,3.2-21.6,6.4-32.1,3.9-12.8,8.5-25.3,13.8-37.5l4.1-9.6c1.4-3.2,2.7-6.3,4.2-9.3,2.9-5.7,6.1-11.3,9.7-16.7,3.3-5.1,6.7-9.9,9.8-14.4,3.2-4.4,6.2-8.5,9.1-12.1,4.6-5.7,9.7-11,15.1-15.9,1.9-1.7,3.5-3,4.5-3.9l1.2-1c.4,0,.6-.1.7-.2Z"/>
    <path class="cls-12" d="m370.6,241.1c-.2-.5-.3-1.1-.4-1.7-.2-1.1-.4-2.6-.7-4.6-.5-3.9-1.2-9.2-1.7-15.1-.6-5.9-1.3-11.3-1.9-15.1-.3-1.9-.5-3.5-.7-4.6-.1-.6-.2-1.1-.2-1.7.2.5.4,1.1.5,1.6.3,1.1.6,2.6,1,4.5.7,3.9,1.5,9.2,2.1,15.1.6,5.9,1.2,11.1,1.5,15.1.2,1.8.4,3.4.5,4.6,0,.7,0,1.3,0,1.9Z"/>
    <path class="cls-12" d="m420.6,231.7c-.7.1-1.3.2-2,.2-1.3.1-3.1.3-5.4.5-4.6.5-10.9,1.4-17.8,2.7s-13.1,2.8-17.5,4c-2.2.6-4,1.1-5.3,1.4-.6.2-1.3.4-1.9.5.6-.3,1.2-.5,1.9-.7,1.2-.4,3-1,5.2-1.7,4.4-1.3,10.6-2.8,17.6-4.2,5.9-1.1,11.9-2,17.9-2.5,2.3-.2,4.2-.3,5.5-.3.4.1,1.1.1,1.8.1Z"/>
    <path class="cls-12" d="m348.8,296.6c-.1-.2-.3-.4-.3-.6l-.9-1.8c-.7-1.6-1.7-3.9-2.9-6.7-2.4-5.7-5.5-13.7-8.8-22.6s-6.3-16.9-8.6-22.7c-1.2-2.8-2.1-5.1-2.7-6.8-.3-.7-.5-1.4-.7-1.9-.1-.2-.2-.4-.2-.7.1.2.3.4.3.6.2.5.5,1.1.9,1.8.7,1.6,1.7,3.9,2.9,6.7,2.4,5.7,5.5,13.7,8.8,22.6s6.3,16.9,8.6,22.7l2.7,6.8c.3.7.5,1.4.7,1.9.1.3.2.5.2.7Z"/>
    <path class="cls-12" d="m415.2,275.2c-.2.1-.4.2-.7.3l-1.9.6-7.1,2.3c-6,1.9-14.3,4.7-23.4,7.8-9.1,3.1-17.5,5.8-23.5,7.6-3,.9-5.5,1.6-7.2,2.1l-2,.5c-.4.1-.7.2-.7.1.2-.1.4-.2.7-.3l1.9-.6,7.1-2.3c6-1.9,14.3-4.7,23.4-7.8,9.1-3.1,17.5-5.8,23.5-7.6,3-.9,5.5-1.6,7.2-2.1l2-.5c.3,0,.5-.1.7-.1Z"/>
    <path class="cls-11" d="m358.2,307.4c4.1,0,8-2.2,10-5.8,2-3.6,2.4-7.8,1.2-11.8-.5-1.8-1.4-3.7-3.2-4.4-1.7-.6-3.6-.3-4.9.9-1.3,1.2-2.3,2.7-2.8,4.3-2.2,5.7-3.2,11.5-.3,16.8"/>
    <path class="cls-11" d="m356,318.2c8.7-.3,17,3.6,22.4,10.5,1.3,1.7,2.4,4.1,1.3,6s-3.8,2.1-5.9,1.7c-9.2-1.7-16.4-8.8-18.3-17.9"/>
    <path class="cls-11" d="m408.2,303.2c-2.2-2.9-5.5-4.9-9.2-5.3-3.6-.4-7.3,0-10.7,1.2-6.7,2.2-12.8,7.4-17.5,12.7,6.2,4.7,15.2,4.3,19.8,3.8,7.2-.8,19.8-6.7,17.6-12.4"/>
    <path class="cls-12" d="m340.2,318.9c1.1-.3,2.3-.6,3.4-1,4.1-1.7,7.9-4,11.4-6.8s6.2-6.6,7.7-10.8c.4-1.3.7-2.6.8-4,.1-.5.1-1,0-1.5-.3,1.8-.8,3.5-1.3,5.3-1.7,4-4.3,7.6-7.7,10.4-3.4,2.7-7.2,5-11.1,6.9"/>
    <path class="cls-12" d="m340,318.9l6.5-1.4c5.5-1.2,13-2.9,21.4-4.7,8.4-1.8,15.9-3.2,21.4-4.2l6.5-1.3c.8-.1,1.6-.3,2.3-.6-.8,0-1.6.1-2.4.3-1.5.2-3.8.6-6.5,1-5.5.9-13.1,2.3-21.5,4s-15.9,3.5-21.3,4.8c-2.7.7-4.9,1.2-6.4,1.7"/>
    <path class="cls-12" d="m371.6,329.1c-.2-.4-.5-.8-.8-1.2-.3-.5-.7-.9-1-1.3-.5-.6-1-1.1-1.5-1.6-1.4-1.3-2.9-2.5-4.5-3.5-2-1.2-4.1-2.2-6.3-3-2.2-.7-4.5-1.2-6.9-1.4-1.9-.2-3.8-.2-5.7.1-.7.1-1.5.2-2.2.3-.5.1-1.1.2-1.6.4-.9.3-1,.6-1,.6,1.6-.4,3.2-.6,4.9-.8,1.9-.1,3.8-.1,5.6.1,4.6.5,9,2,12.9,4.3,1.6,1,3.1,2.1,4.5,3.3,2.3,2.2,3.5,3.8,3.6,3.7Z"/>
  </g>
  <g id="freepik--Device--inject-64">
    <path class="cls-12" d="m318.4,382.9l-129.9-.6c-15.6-.1-28.2-12.8-28.2-28.4h0l1.4-325.7C161.8,12.6,174.5-.1,190.1,0h0l129.9.6c15.6.1,28.2,12.8,28.2,28.4l-1.4,325.7c-.1,15.7-12.8,28.3-28.4,28.2h0Z"/>
    <path class="cls-8" d="m319.8,11.8l-25.2-.1c-3.4.1-6.2,2.9-6.1,6.3h0v4.6c.1,3.5-2.7,6.3-6.1,6.4h0l-49.1-.2c-3.5-.1-6.2-3-6.1-6.4v-4.5c.1-3.5-2.6-6.3-6.1-6.4h-8.9l-22.1-.1c-10.9-.1-19.9,8.8-19.9,19.7v.1l-1.3,317.8c-.1,10.9,8.8,19.8,19.7,19.9h0l129.7.6c10.9.1,19.9-8.8,19.9-19.7v-.1l1.4-317.9c0-11.1-8.9-19.9-19.8-20h0Z"/>
    <rect class="cls-11" x="240.1" y="49.6" width="33.4" height="6.1"/>
    <path class="cls-11" d="m200.6,101.3c.3,0,.5,0,.8.1.2-.1.5-.1.7-.1h-1.5Z"/>
    <path class="cls-8" d="m209.8,84.4c-.6-.8-1.4-1.6-2.2-2.2-3.7-2.7-8.7-2.7-12.3,0-.9.6-1.6,1.4-2.2,2.2-.6.8-1.1,1.7-1.4,2.6-1.2,3.3-.7,7.1,1.4,9.9.1.2.3.3.4.5.9-2.8,3.4-4.9,6.3-5.2-1.8-.8-3-2.6-3-4.7-.2-2.6,1.8-4.9,4.4-5.1,2.6-.2,4.9,1.8,5.1,4.4v.7c0,2-1.2,3.8-3,4.7,2.9.4,5.4,2.4,6.2,5.2l.4-.5c2.1-2.8,2.7-6.6,1.4-9.9-.4-.9-.9-1.8-1.5-2.6Z"/>
    <path class="cls-11" d="m211.8,86.9c-.3-1-.8-2-1.5-2.8-.6-.9-1.4-1.7-2.3-2.3-3.9-2.9-9.2-2.9-13.1,0-.9.6-1.7,1.4-2.3,2.3s-1.1,1.8-1.5,2.8c-.7,1.9-.8,3.9-.4,5.8.3,1.7,1,3.3,2.1,4.7,1.5,2,3.7,3.3,6.1,3.9.6.2,1.3.2,2,.2h.7c-.3-.1-.5-.1-.8-.1h1.5c-.2,0-.5,0-.7.1h.7c.7,0,1.3-.1,2-.2,2.4-.6,4.6-1.9,6.1-3.9,1.1-1.4,1.8-3,2.1-4.7.1-2,0-4-.7-5.8Zm-.1,5.7c-.3,1.6-1,3.2-2,4.5l-.4.5c-.8-2.8-3.3-4.9-6.2-5.2,1.8-.8,3-2.6,3-4.7.2-2.6-1.8-4.9-4.4-5.1-2.6-.2-4.9,1.8-5.1,4.4v.7c0,2,1.2,3.9,3,4.7-3,.3-5.4,2.4-6.3,5.2-.1-.2-.3-.3-.4-.5-2.1-2.8-2.7-6.6-1.4-9.9.3-.9.8-1.8,1.4-2.6.6-.8,1.4-1.6,2.2-2.2,3.7-2.7,8.7-2.7,12.3,0,.9.6,1.6,1.4,2.2,2.2.6.8,1.1,1.7,1.4,2.6.8,1.7,1,3.5.7,5.4Z"/>
    <path class="cls-11" d="m327.3,111.1s.3,0,1-.1c.9-.2,1.8-.6,2.5-1.3,1.1-1.1,1.7-2.6,1.6-4.2v-6.4c0-4.8,0-10.7-.1-17.5v-5.3c.1-1.8-.8-3.6-2.4-4.5-1.6-1-3.7-.6-5.7-.7h-6.3l-134,.1c-1.5,0-3,.8-3.9,2-.4.6-.7,1.3-.8,2.1-.1.8-.1,1.6-.1,2.3v28.4c.1,1.5.8,2.8,2,3.7.6.4,1.2.7,1.9.8.7.1,1.5.1,2.2.1h26.4l60.2.1,40.6.1,11,.1h3.9-3.9l-11,.1-40.6.1-60.2.1h-26.4c-.8,0-1.6,0-2.3-.1-2.5-.4-4.4-2.6-4.5-5.1v-30.9c.1-.8.4-1.6.9-2.3,1-1.5,2.7-2.3,4.5-2.3l134,.1h9.3c1,0,2,.2,2.9.7,1.7,1,2.7,2.9,2.6,4.9v5.3c0,6.8,0,12.7-.1,17.5v6.4c.1,1.6-.5,3.2-1.7,4.3-.7.7-1.6,1.1-2.6,1.3-.2-.1-.6,0-.9.1Z"/>
    <rect class="cls-11" x="222.2" y="81.4" width="37.8" height="2.8"/>
    <rect class="cls-11" x="222.2" y="97.4" width="66.3" height="2.8"/>
    <rect class="cls-11" x="222.2" y="89.2" width="96.1" height="2.8"/>
    <path class="cls-11" d="m200.6,201.7c.5.1.8.1.8.1.2-.1.5-.1.7-.1h-1.5Z"/>
    <path class="cls-8" d="m209.8,184.8c-.6-.9-1.4-1.6-2.2-2.2-3.7-2.7-8.7-2.7-12.3,0-1.7,1.2-2.9,2.9-3.6,4.8-1.2,3.3-.7,7.1,1.4,9.9l.4.5c.9-2.8,3.4-4.9,6.3-5.2-1.8-.8-3-2.6-3-4.7-.2-2.6,1.8-4.9,4.4-5.1,2.6-.2,4.9,1.8,5.1,4.4v.7c0,2-1.2,3.8-3,4.7,2.9.3,5.4,2.4,6.2,5.2l.4-.5c2.1-2.8,2.7-6.6,1.4-9.9-.4-.9-.9-1.8-1.5-2.6Z"/>
    <path class="cls-11" d="m211.8,187.2c-.3-1-.8-2-1.5-2.8-.6-.9-1.4-1.7-2.3-2.3-3.9-2.9-9.2-2.9-13.1,0-1.8,1.3-3.1,3.1-3.8,5.2-.7,1.9-.8,3.9-.4,5.8.3,1.7,1,3.3,2.1,4.7,1.5,2,3.7,3.3,6.1,3.9.6.2,1.3.2,2,.2h.7s-.3,0-.8-.1h1.5c-.2,0-.5,0-.7.1h.7c.7,0,1.3-.1,2-.2,2.4-.6,4.6-1.9,6.1-3.9,1.1-1.4,1.8-3,2.1-4.7.1-2,0-4-.7-5.9Zm-.1,5.8c-.3,1.6-.9,3.1-1.9,4.4l-.4.5c-.8-2.8-3.3-4.9-6.2-5.2,1.8-.8,3-2.6,3-4.7.2-2.6-1.8-4.9-4.4-5.1-2.6-.2-4.9,1.8-5.1,4.4v.7c0,2,1.2,3.9,3,4.7-3,.3-5.4,2.4-6.3,5.2l-.4-.5c-2.1-2.8-2.7-6.6-1.4-9.9.7-1.9,2-3.6,3.6-4.8,3.7-2.7,8.7-2.7,12.3,0,.9.6,1.6,1.4,2.2,2.2.6.8,1.1,1.7,1.4,2.6.7,1.7.9,3.6.6,5.5h0Z"/>
    <path class="cls-11" d="m327.3,211.5s.3,0,1-.1c.9-.2,1.8-.6,2.5-1.3,1.1-1.1,1.7-2.6,1.6-4.2v-6.4c0-4.8,0-10.7-.1-17.5v-5.3c.1-1.8-.8-3.6-2.4-4.5-1.6-1-3.7-.6-5.7-.7h-6.3l-134,.1c-1.6,0-3,.8-3.9,2-.4.6-.7,1.3-.8,2.1s-.1,1.6-.1,2.3v28.5c.1,1.5.8,2.8,2,3.7.6.4,1.2.7,1.9.8s1.5.1,2.2.1h26.4l60.2.1,40.6.1h14.9-3.9l-11,.1-40.6.1-60.2.1h-26.4c-.8,0-1.6,0-2.3-.1-2.4-.4-4.3-2.5-4.5-4.9v-30.9c.1-.9.4-1.7.9-2.4,1-1.5,2.7-2.3,4.5-2.3l134,.1h9.3c2.9-.1,5.4,2.2,5.5,5.1v5.8c0,6.8,0,12.7-.1,17.5v6.4c.1,1.6-.5,3.2-1.7,4.3-.7.7-1.6,1.1-2.6,1.3-.2-.1-.6,0-.9,0Z"/>
    <rect class="cls-11" x="222.2" y="181.8" width="37.8" height="2.8"/>
    <rect class="cls-11" x="222.2" y="197.8" width="66.3" height="2.8"/>
    <rect class="cls-11" x="222.2" y="189.6" width="96.1" height="2.8"/>
    <path class="cls-3" d="m179,155.4l.1-31c0-2.5,2.1-4.6,4.6-4.6l144.5.4c2.5,0,4.6,2.1,4.6,4.6l-.1,31c0,2.5-2.1,4.6-4.6,4.6l-144.6-.4c-2.5,0-4.5-2.1-4.5-4.6Z"/>
    <rect class="cls-8" x="240.06" y="113.04" width="2.8" height="37.8" transform="translate(108.84 373.03) rotate(-89.84)"/>
    <rect class="cls-8" x="254.22" y="114.84" width="2.8" height="66.3" transform="translate(106.91 403.2) rotate(-89.84)"/>
    <rect class="cls-8" x="269.19" y="91.79" width="2.8" height="96.1" transform="translate(129.99 410.04) rotate(-89.84)"/>
    <path class="cls-8" d="m203.5,141.2c1.8-.9,3-2.7,2.9-4.7.1-2.6-1.9-4.8-4.5-5-2.6-.1-4.8,1.9-5,4.5v.6c0,2,1.2,3.9,3.1,4.7-3,.4-5.5,2.7-6.3,5.6,1.7,1.9,4.1,3.1,6.6,3.4h2.9c2.6-.4,4.9-1.7,6.6-3.7-.7-3-3.2-5.1-6.3-5.4Z"/>
    <path class="cls-8" d="m202,150.4c0-.1,1,0,2.6-.5,5.6-1.6,8.9-7.4,7.3-13-.1-.3-.2-.6-.3-.9-.4-.9-.9-1.8-1.5-2.6s-1.4-1.6-2.3-2.2c-3.7-2.6-8.7-2.5-12.4.3-.8.6-1.6,1.4-2.2,2.3-.6.8-1.1,1.7-1.4,2.7-1.9,5.6,1.1,11.6,6.7,13.5.3.1.6.2.9.3,1.7.1,2.6,0,2.6.1-.8.1-1.7.1-2.6-.1-2.4-.5-4.6-1.8-6.2-3.8-1.1-1.3-1.8-2.9-2.2-4.6-.4-1.9-.3-3.9.3-5.8.7-2.1,2-3.9,3.7-5.2,3.8-3,9.1-3.1,13.1-.3.9.6,1.7,1.4,2.4,2.3.7.8,1.2,1.8,1.5,2.8.7,1.9.9,3.9.6,5.8-.7,4.2-3.8,7.6-8,8.7-.8.2-1.7.3-2.6.2Z"/>
    <path class="cls-11" d="m246.4,339c-.2,1.5-1.6,2.5-3.1,2.3-1.2-.2-2.1-1.1-2.3-2.3.2-1.5,1.6-2.5,3.1-2.3,1.2.2,2.1,1.1,2.3,2.3Z"/>
    <path class="cls-11" d="m254.7,339c.2,1.5-.8,2.8-2.3,3s-2.8-.8-3-2.3.8-2.8,2.3-3h.4c1.3-.1,2.5.9,2.6,2.3Z"/>
    <path class="cls-11" d="m263,339c.2,1.5-.8,2.8-2.3,3s-2.8-.8-3-2.3.8-2.8,2.3-3h.4c1.3-.1,2.5,1,2.6,2.3Z"/>
    <path class="cls-11" d="m200.6,253.7c.5.1.8.1.8.1,0,0,.3,0,.7-.1h-1.5Z"/>
    <path class="cls-8" d="m209.8,236.9c-.6-.8-1.4-1.6-2.2-2.2-3.7-2.7-8.7-2.7-12.3,0-.9.6-1.6,1.3-2.2,2.2-.6.8-1.1,1.7-1.4,2.6-1.2,3.3-.7,7.1,1.4,9.9.1.2.3.3.4.5.9-2.8,3.4-4.9,6.3-5.2-1.9-.8-3.1-2.7-3-4.7-.2-2.6,1.8-4.9,4.4-5.1,2.6-.2,4.9,1.8,5.1,4.4v.7c0,2-1.2,3.8-3,4.7,2.9.3,5.4,2.4,6.2,5.2l.4-.5c2.1-2.9,2.7-6.6,1.4-9.9-.4-1-.9-1.9-1.5-2.6Z"/>
    <path class="cls-11" d="m211.8,239.3c-.3-1-.8-2-1.5-2.8-.7-.9-1.4-1.7-2.3-2.3-3.9-2.9-9.2-2.9-13.1,0-1.8,1.3-3.1,3.1-3.8,5.2-.7,1.9-.8,3.9-.4,5.8.3,1.7,1,3.3,2.1,4.7,1.5,2,3.7,3.3,6.1,3.9.6.2,1.3.2,2,.2h.7s-.3,0-.8-.1h1.5c-.5.1-.7.1-.7.1h.7c.7,0,1.3-.1,2-.2,2.4-.6,4.6-1.9,6.1-3.9,1.1-1.4,1.8-3,2.1-4.7.1-2,0-4-.7-5.9Zm-.1,5.7c-.3,1.6-.9,3.1-1.9,4.4l-.4.5c-.8-2.8-3.3-4.9-6.2-5.2,1.8-.8,3-2.6,3-4.7.2-2.6-1.8-4.9-4.4-5.1-2.6-.2-4.9,1.8-5.1,4.4v.7c0,2,1.1,3.9,3,4.7-3,.3-5.4,2.4-6.3,5.2-.1-.2-.3-.3-.4-.5-2.1-2.8-2.7-6.6-1.4-9.9.3-1,.8-1.8,1.4-2.6.6-.8,1.4-1.6,2.2-2.2,3.7-2.7,8.7-2.7,12.3,0,.9.6,1.6,1.3,2.2,2.2.6.8,1.1,1.7,1.4,2.6.7,1.8.9,3.7.6,5.5Z"/>
    <path class="cls-11" d="m327.3,263.5s.3,0,1-.1c.9-.2,1.8-.6,2.5-1.3,1.1-1.1,1.7-2.6,1.6-4.2v-6.4c0-4.8,0-10.7-.1-17.5v-5.3c.1-1.8-.8-3.6-2.4-4.5-1.6-1-3.7-.6-5.7-.7h-6.3l-134,.1c-1.6,0-3,.7-3.9,2-.4.6-.7,1.3-.8,2.1s-.1,1.6-.1,2.3v28.5c.1,1.5.8,2.8,2,3.7.6.4,1.2.7,1.9.8.7.1,1.5.1,2.2.1h26.4l60.2.1,40.6.1,11,.1h2.9c.6.1,1,.1,1,.1l-1-.1h-13.9l-40.6.1-60.2.1h-26.4c-.8,0-1.6,0-2.3-.1-.8-.1-1.6-.4-2.2-.9-1.4-1-2.2-2.5-2.2-4.2v-30.9c.1-.9.4-1.7.9-2.4,1-1.4,2.7-2.3,4.5-2.3l134,.1h9.3c1,0,2,.2,2.9.7,1.7,1,2.7,2.9,2.6,4.9v5.3c0,6.8,0,12.7-.1,17.5v6.4c.1,1.6-.5,3.2-1.7,4.3-.7.7-1.6,1.1-2.6,1.3-.3.1-.7.2-1,.2Z"/>
    <rect class="cls-11" x="222.2" y="233.8" width="37.8" height="2.8"/>
    <rect class="cls-11" x="222.2" y="249.9" width="66.3" height="2.8"/>
    <rect class="cls-11" x="222.2" y="241.7" width="96.1" height="2.8"/>
    <path class="cls-11" d="m200.6,304.7c.5.1.8.1.8.1,0,0,.3-.1.7-.1h-1.5Z"/>
    <path class="cls-8" d="m209.8,287.9c-.6-.8-1.4-1.6-2.2-2.2-3.7-2.7-8.7-2.7-12.3,0-.9.6-1.6,1.4-2.2,2.2-.6.8-1.1,1.7-1.4,2.6-1.2,3.3-.7,7.1,1.4,9.9.1.2.3.3.4.5.9-2.8,3.4-4.9,6.3-5.2-1.8-.8-3-2.6-3-4.7-.2-2.6,1.8-4.9,4.4-5.1s4.9,1.8,5.1,4.4v.7c0,2-1.2,3.8-3,4.7,2.9.3,5.4,2.4,6.2,5.2.1-.2.3-.3.4-.5,1-1.3,1.6-2.8,1.9-4.4.3-1.8.2-3.7-.5-5.5-.4-.9-.9-1.8-1.5-2.6Z"/>
    <path class="cls-11" d="m211.8,290.3c-.3-1-.8-2-1.5-2.8-.6-.9-1.4-1.7-2.3-2.3-3.9-2.9-9.2-2.9-13.1,0-.9.6-1.7,1.4-2.3,2.3s-1.1,1.8-1.5,2.8c-.7,1.9-.8,3.9-.4,5.8.3,1.7,1,3.3,2.1,4.7,1.5,2,3.7,3.3,6.1,3.9.6.2,1.3.2,2,.2h.7s-.3-.1-.8-.1h1.5c-.5,0-.7,0-.7.1h.7c.7,0,1.3-.1,2-.2,4.1-1,7.3-4.3,8.2-8.5.1-2,0-4-.7-5.9Zm-.1,5.7c-.3,1.6-.9,3.1-1.9,4.4-.1.2-.3.3-.4.5-.8-2.8-3.3-4.9-6.2-5.2,1.8-.8,3-2.6,3-4.7.2-2.6-1.8-4.9-4.4-5.1-2.6-.2-4.9,1.8-5.1,4.4v.7c0,2,1.2,3.8,3,4.7-3,.3-5.4,2.4-6.3,5.2-.1-.2-.3-.3-.4-.5-2.1-2.8-2.7-6.6-1.4-9.9.3-1,.8-1.8,1.4-2.6.6-.8,1.4-1.6,2.2-2.2,3.7-2.7,8.7-2.7,12.3,0,1.7,1.2,2.9,2.9,3.6,4.8.7,1.8.9,3.7.6,5.5Z"/>
    <path class="cls-11" d="m327.3,314.6s.3,0,1-.1c2.5-.5,4.3-2.9,4-5.5v-6.4c0-4.8,0-10.7-.1-17.5v-5.3c.1-1.9-.9-3.6-2.5-4.5-1.6-1-3.7-.6-5.7-.7h-6.3l-134,.1c-1.6,0-3,.8-3.9,2-.4.6-.7,1.3-.8,2.1-.1.8-.1,1.6-.1,2.3v28.5c.1,1.5.8,2.8,2,3.7.6.4,1.2.7,1.9.8.7.1,1.5.1,2.2.1h26.4l60.2.1,40.6.1,11,.1h2.9l1.2.1c-.1-.1-.4-.1-1-.1h-2.9l-11,.1-40.6.1-60.2.1h-26.3c-.8,0-1.6,0-2.3-.1-.8-.1-1.6-.5-2.2-.9-1.4-1-2.2-2.5-2.2-4.2v-30.9c.1-.9.4-1.7.9-2.4,1-1.5,2.7-2.3,4.5-2.3l134,.1h9.3c1,0,2,.2,2.9.7,1.7,1,2.7,2.9,2.6,4.9v5.3c0,6.8,0,12.7-.1,17.5v6.4c.1,1.6-.5,3.2-1.7,4.3-.7.7-1.6,1.1-2.6,1.3-.4-.1-.8,0-1.1.1Z"/>
    <rect class="cls-11" x="222.2" y="284.9" width="37.8" height="2.8"/>
    <rect class="cls-11" x="222.2" y="300.9" width="66.3" height="2.8"/>
    <rect class="cls-11" x="222.2" y="292.7" width="96.1" height="2.8"/>
    <circle class="cls-12" cx="327.7" cy="123.2" r="7.8"/>
    <polyline class="cls-1" points="323.9 122.6 327.2 125.4 331.5 121"/>
  </g>
  <g id="freepik--Character--inject-64">
    <polygon class="cls-3" points="112.7 468.7 110.8 479.7 127.8 480.9 127.9 470.1 112.7 468.7"/>
    <path class="cls-12" d="m120.4,468.8c0,3.4-.4,6.7-1.2,10-.1-1.7,0-3.4.3-5,.1-1.7.4-3.4.9-5Z"/>
    <path class="cls-12" d="m127.8,479.7c-.8,0-1.6,0-2.5-.2l-5.9-.7c-2.3-.3-4.4-.5-5.9-.8-.8-.1-1.6-.3-2.4-.5.8,0,1.6,0,2.5.2l5.9.7c2.3.3,4.4.5,5.9.8.8.1,1.6.3,2.4.5Z"/>
    <path class="cls-3" d="m174.1,474.7v-9.9l-18.5-.2-.2,14.5,1.2.1c5.1.3,26,1.3,29.4.3,3.8-1.1-11.9-4.8-11.9-4.8Z"/>
    <g class="cls-13">
      <path d="m162.1,479c-.3-1.6-1.1-3-2.3-4s-2.8-1.5-4.3-1.4v5.2l6.6.2Z"/>
    </g>
    <g class="cls-13">
      <path d="m181.7,476.7s5.5,1.6,4.8,2.6c-.7.9-21.9.7-31.2-.2v-.4l24.7.5c0-.1.7-2.4,1.7-2.5Z"/>
    </g>
    <path class="cls-12" d="m155.1,478.6h.3l.9.1,3.4.2c2.9.1,6.8.3,11.1.3s8.3,0,11.1-.1l3.4-.1h1.2-15.6c-4.3,0-8.3-.2-11.1-.2l-3.4-.1h-.9l-.4-.1Z"/>
    <path class="cls-12" d="m180.1,479.4c.2-.6.4-1.1.7-1.6s.7-.9,1.2-1.3c-.6.2-1.1.6-1.4,1.2-.4.5-.6,1.1-.5,1.7Z"/>
    <path class="cls-12" d="m174.6,476.6s.3-.3.6-.7c.2-.2.3-.5.4-.8,0,0-.3.3-.6.7-.2.4-.4.7-.4.8Z"/>
    <path class="cls-12" d="m173.2,475.8s.3-.2.7-.4c.3-.3.5-.5.5-.6s-.3.1-.7.4c-.4.3-.6.5-.5.6Z"/>
    <path class="cls-12" d="m172.2,474c.6.1,1.3.1,1.9,0,0-.1-.4-.1-1-.1-.2-.1-.6,0-.9.1Z"/>
    <path class="cls-12" d="m171.9,472.8c.3.2.7.3,1.1.3.4.1.8,0,1.2-.1-.4-.1-.7-.1-1.1-.1-.4-.1-.8-.1-1.2-.1Z"/>
    <path class="cls-12" d="m175.3,475c.4.1.8.1,1.2,0s.9-.1,1.3-.3c.3-.1.5-.2.7-.3.1-.1.3-.2.3-.4s0-.4-.2-.5c-.9-.5-2.1-.2-2.7.6-.2.2-.3.5-.4.8v.3c.1-.4.3-.7.5-1,.3-.3.6-.5,1-.7.5-.1,1-.1,1.4.1.2.1.1.4-.1.5-.2.1-.4.2-.7.3-.4.1-.8.2-1.2.3-.7.2-1.1.2-1.1.3Z"/>
    <path class="cls-12" d="m175.6,475s.2-.3.2-.8c0-.3-.2-.6-.3-.9-.2-.4-.6-.6-1-.6-.3,0-.4.3-.4.5h0c0,.2.1.4.2.5.2.3.3.5.5.7s.4.4.7.5c0,0-.2-.2-.6-.6-.2-.2-.3-.5-.5-.7-.2-.3-.3-.7,0-.8.3,0,.6.3.8.5s.3.5.3.8c.1.4.1.7.1.9Z"/>
    <path class="cls-12" d="m155.6,473.6s.5,0,1.4.1c1.1.1,2.1.6,3,1.3.8.7,1.5,1.6,1.8,2.7.1.4.2.9.3,1.3v-.4c0-.3-.1-.7-.2-1-.3-1.1-1-2.1-1.9-2.8-.9-.7-2-1.2-3.1-1.2h-1c-.1-.1-.2-.1-.3,0Z"/>
    <path class="cls-12" d="m157.6,465.9c-.1,1.3-.2,2.5-.2,3.8-.1,1.3-.1,2.5,0,3.8.1-1.3.2-2.5.2-3.8v-3.8Z"/>
    <path class="cls-12" d="m164.4,477.2c.9.2,1.8.3,2.7.3.9.1,1.8,0,2.7-.2,0-.1-1.2,0-2.7,0s-2.6-.2-2.7-.1Z"/>
    <path class="cls-12" d="m160.8,477.2s.1.3.2.5c.1.3.2.5.3.5s.1-.3,0-.6-.4-.5-.5-.4Z"/>
    <path class="cls-12" d="m159.5,475.5s.1.2.3.4.4.3.4.3c0,0-.1-.2-.3-.4-.2-.3-.4-.4-.4-.3Z"/>
    <path class="cls-12" d="m157.5,474.7c0,.1.3.1.5.2.3.1.5.2.5.2,0,0-.1-.3-.4-.4-.3-.2-.6-.1-.6,0Z"/>
    <path class="cls-12" d="m156.1,474.3s.1.2.2.2c.2.1.3,0,.3,0,0,0-.1-.2-.2-.2-.1-.1-.3-.1-.3,0Z"/>
    <path class="cls-9" d="m146,174c.1-2.9.5-6.2.5-6.2,0,0,7.2-.8,7.6-8.2s0-24.5,0-24.5l-13.1-6.7-14.4,11.3,2.2,37.1,13.2.8c2.1.1,3.9-1.5,4-3.7q0,.2,0,.1Z"/>
    <path class="cls-5" d="m147.3,153.8s0,.1-.1.3c-.2.2-.5.4-.8.4-.8,0-1.6-1-1.9-2.1-.1-.5-.1-1.1,0-1.6,0-.5.3-.9.8-1.2.2-.1.4-.1.5,0l.3.3c.1.2,0,.3,0,.3,0,0,0-.1-.1-.3s-.4-.3-.6-.1c-.3.2-.5.6-.5.9-.1.5-.1,1,.1,1.5.3,1,1,1.8,1.6,1.9.3,0,.5,0,.7-.2-.1,0,0-.1,0-.1Z"/>
    <path class="cls-12" d="m147.2,158.3c.1-.3.2-.6.2-.8.1-.3.1-.4.2-.6h0c.1-.6.2-1.2.2-1.9-1.3.5-2.8.2-3.8-.8s-1.3-2.5-.9-3.9c.6-1.5,1.8-2.6,3.4-3.2,1.4-.6,3-.9,4.4-1.6,3-1.4,5.1-4.4,6.5-7.5,1-2.2,1.7-4.7,1.1-7-1-3.4-4.7-5.1-7.9-6-5-1.4-10.5-2.1-15.4-.2-4.9,1.8-10.8,5-10.8,10.4-2.9-.2-4.6,2.3-5.7,5.5-.6,2-1,3.9-1.3,6"/>
    <path class="cls-12" d="m128.3,169.3c-7.4-5.1-11.5-13.7-11-22.6.7-15.6,29.9,11.6,29.9,11.6,0,0-5.6,18.3-18.3,10.9"/>
    <path class="cls-3" d="m124,153.8c-.1-.1.5-.6,1-1.7,1.3-2.8,0-6.2-2.8-7.5-.2-.1-.4-.2-.5-.2-1.2-.4-2-.4-2-.5.7-.2,1.4-.2,2.1.1,1.7.5,3.1,1.7,3.8,3.3.7,1.6.6,3.4-.2,5-.7,1.1-1.4,1.5-1.4,1.5Z"/>
    <path class="cls-12" d="m118,144.2c-.3,0-.5,0-.8-.2-.7-.3-1.2-.8-1.5-1.5-.5-1-.7-2-.5-3.1.1-1.3.5-2.5,1.2-3.7.6-1.2,1.7-2.1,2.9-2.6,1-.4,2.2-.4,3.2,0,.7.3,1.2.8,1.6,1.4.2.4.3.7.2.7-.5-.8-1.2-1.4-2-1.7-.9-.3-1.9-.3-2.8.1-1.1.5-2,1.3-2.6,2.3-1.2,2.2-1.6,4.8-.8,6.3.4,1,1.1,1.7,1.9,2Z"/>
    <path class="cls-9" d="m250.3,149.5c-.5-.5-1.8-.3-1.8-.3.1-.7.1-1.5,0-2.3-.2-.7-1.9-.6-1.9-.6-.1-.6-.1-1.2,0-1.9,0-.3-.1-.5-.4-.7-.8-.3-1.6-.5-2.4-.4-1-.7,3.1-6.4,4.6-8.2s1.2-3.2-.1-3.2c-.9,0-5.7,5.5-7.1,7.3-1.5,1.8-5.3,6.9-5.5,2.9s-1.8-7.2-2.8-7.7-2.1.7-1.5,1.8c.5,1.3.8,2.6.9,4,.1,1.1.1,2.2-.2,3.3-.4,2-1,3.9-1.7,5.8l-.1-.1s-28.4,27.2-30.4,29.1c-1.8,1.7-38.7-2.1-46.1-2.9-2.5-.4-5.1-.5-7.6-.5-3.2.1-3.8.6-7,.6-7.6,0-15.3.7-22.8,1.9-7.4,1.2-11.4,7-13.7,14.1-7.5,23.3-27.6,78.1-30.7,109-2.2,4.1-4.3,8.3-6.1,12.6-2.1,5.7-1.6,5.9-.9,6,1.9.3,4.1-9.9,4.9-7.4s-4.1,12.2-2.1,12.5c2.6.4,4.7-10.4,4.9-11.3s1.5-.6,1.3.2c-.4,1.2-4,13.3-1.5,13.7,1.4.2,1.6-2.3,1.6-2.3,0,0,2.6-11.6,3.8-11.4,1.2.3-.1,7.1-.7,9.4s.2,3.5,1.5,2.9c.8-.4,2.8-7.3,3.4-9.6s1.9-8.5,3.7-4.9c1.8,3.6,4.7,5.7,5.8,5.8.7,0,1.2-.6,1.2-1.3,0-.4-.2-.8-.6-1-1-1-1.8-2.1-2.5-3.3-.6-.9-1-2-1.3-3.1-.5-2.2-.8-4.4-.9-6.6l-.2-1.3c2.9-14.4,12.8-63.6,24.8-90.6l3.5,17.1,2.2,7.6-13.2,32.7,56.5-.7-8.4-32.4,10.2-33.8h0c11.1.2,39.5.7,44.3-1.5,6-2.7,36.8-41.5,36.8-41.5h0c2-1.6,4-3.2,5.8-5-.2.2,1.6-1.4.5-2.5Z"/>
    <path class="cls-3" d="m102,243.1c1.6-5.6,10-33.2,10-33.2,0,0,4.1,22.5,3.1,25.3-1,2.3-2.2,4.6-3.6,6.7-9.5,14.5-8.3,21.8-8.3,21.8l57.7-1.8c.1-8.1-4.7-26.8-5.6-29.8-1-3,2.3-12.8,2.3-12.8,0,0,6.5-6.6,6.3-10-.1-3.1-.5-6.1-1.2-9.1l42.7.8-4.8-23.2-41.2-3-13.7-1.3c-6.9,5.8-17.2,0-17.2,0-13.1,1.3-15.1,3.4-20.5,8.8-6.4,6.4-23.7,55.2-23.7,55.2l17.7,5.6Z"/>
    <path class="cls-12" d="m136.1,237.4c-1,.2-2,.2-3,.2-1.9,0-4.5-.1-7.3-.4-2.9-.3-5.4-.7-7.3-1.1-1-.1-2-.4-2.9-.8,1,0,2,.1,3,.3,1.9.2,4.4.6,7.3.9,2.8.3,5.4.5,7.3.6.9,0,1.9.1,2.9.3Z"/>
    <path class="cls-12" d="m140.1,232.5c-1,.5-2.1.8-3.1,1.1-2.6.7-5.2,1.2-7.9,1.5s-5.3.4-8,.4c-1.1,0-2.2-.1-3.3-.3,1.1-.2,2.2-.2,3.3-.2,2-.1,4.8-.2,7.9-.6,3.1-.4,5.8-.9,7.9-1.3,1-.2,2.1-.5,3.2-.6Z"/>
    <path class="cls-12" d="m159.5,210.7c0,1-.1,2-.4,2.9-.3,1.8-.9,4.3-1.5,7s-1.3,5.1-1.9,6.9c-.2,1-.6,1.9-1,2.8.1-1,.3-2,.5-2.9.5-2,1.1-4.4,1.7-6.9.6-2.6,1.2-4.9,1.7-7,.2-1,.5-1.9.9-2.8Z"/>
    <path class="cls-11" d="m102.9,264l57.7-1.8,25.1,98-4.7,112.4h-30.5l3.8-110-22.3-68.2,3.4,179.4-30.8.5-3.2-168.4c-.1-4.8-1.7-15.5-1.2-20.3l2.7-21.6Z"/>
    <path class="cls-12" d="m139.6,295.8c-.9.1-1.9,0-2.8-.2-1.7-.2-4.1-.6-6.7-1.1-2.6-.5-5-1.2-6.6-1.6-.9-.2-1.8-.5-2.7-.9,0-.2,4.2.8,9.4,1.9,5.2,1,9.5,1.7,9.4,1.9Z"/>
    <path class="cls-12" d="m180.7,466.5c0,.2-6.9.3-15.4.3s-14.6-.3-14.6-.5,6.1-.2,14.6-.2c8.5,0,15.4.3,15.4.4Z"/>
    <path class="cls-12" d="m134.9,466.8c0,.2-6.7.3-15,.3s-15-.2-15-.3,6.7-.3,15-.3,15,.1,15,.3Z"/>
    <path class="cls-12" d="m131.2,466.8c-.2,0-1-38.8-1.8-86.6-.8-47.8-1.3-86.6-1.2-86.6.2,0,1,38.8,1.9,86.6s1.2,86.6,1.1,86.6Z"/>
    <path class="cls-12" d="m176.6,466.5v-2.1c0-1.4.1-3.4.2-6,.2-5.2.4-12.7.8-22,.7-18.6,1.7-44.3,2.8-72.6v-.8.1c-6.8-27.4-13-52.1-17.5-70.1l-5.2-21.2c-.6-2.5-1.1-4.4-1.4-5.8-.1-.6-.3-1.1-.3-1.5,0-.2-.1-.3-.1-.5.1.2.1.3.2.5.1.4.2.9.4,1.5.3,1.4.9,3.3,1.5,5.8,1.3,5,3.1,12.2,5.4,21.2,4.5,17.9,10.8,42.7,17.7,70v.9c-1.2,28.4-2.2,54-3,72.6-.4,9.3-.7,16.8-1,22-.1,2.6-.2,4.6-.3,6,0,.7-.1,1.2-.1,1.5,0,.1,0,.3-.1.5Z"/>
    <path class="cls-12" d="m166.7,360.7c-2.2.7-4.5,1.2-6.7,1.5-2.8.5-5.2.8-6.3.9v-.3c.3.1.5.2.5.2h-1.4l.8-.2c1-.3,3.4-.8,6.2-1.3,2.3-.5,4.6-.8,6.9-.8Z"/>
    <path class="cls-12" d="m166.1,364.4c-2,.1-4.1,0-6.1-.3-2-.1-4.1-.3-6-.7,2-.3,4.1-.3,6.1,0,2,.1,4.1.4,6,1Z"/>
    <path class="cls-12" d="m102.6,266.1c1.4,2,3.4,2.7,5.7,3,2.3.3,4.7.2,7-.1,14.9-1.7,30.7-3.2,45.2-6.7-18.9,1-38.8.7-57.7,1.8,0,0-.2,1.3-.2,1.6"/>
    <polygon class="cls-12" points="122.1 292.7 132.7 333.9 132 294.4 122.1 292.7"/>
    <path class="cls-12" d="m119.9,144.7c-4.1-1.1-8.4,3.3-8.5,7.5,0,1.2.1,2.6-.7,3.5-.9.9-2.4.6-3.7.7-2.7.3-4.9,2.4-5.2,5.1-.2,1.9.6,3.9-.2,5.6-.8,1.7-2.6,2.4-3.9,3.7-1.6,1.8-2.3,4.1-2,6.4.3,2.3.9,4.6,1.8,6.7.7,2,1.7,4.2,3.7,4.9h17.2l1.3-6.5,2.1,6.5h2.8l-1.5-42.2c0,.2,0-1.1-3.2-1.9Z"/>
    <path class="cls-12" d="m96.4,164.9s-.2,0-.5.1c-.4.2-.6.7-.4,1.2.5,1,1.7,1.5,2.7,1,.9-.4,1.4-1.5,1.1-2.5-.2-.6-.6-1.1-.9-1.6-.9-1.2-1.3-2.7-1.1-4.1.2-1.6,1.2-3.1,2.6-3.9,1.5-.9,3.4-1,5-.3s3,1.7,4.5,1.5c.7,0,1.3-.4,1.7-1,.2-.7.3-1.4.2-2.1-.2-2.7.8-5.4,2.7-7.3,1.3-1.2,3.1-1.9,4.9-1.9.5,0,1,.1,1.4.2.2,0,.3.1.5.2-.6-.1-1.3-.2-1.9-.2-1.7,0-3.4.7-4.7,2-1.8,1.9-2.7,4.4-2.5,7,.1.8,0,1.6-.3,2.3-.4.8-1.2,1.3-2.1,1.3-.9.1-1.7-.1-2.5-.4-.8-.3-1.5-.8-2.3-1.1-1.5-.6-3.1-.5-4.5.2-1.3.7-2.1,2-2.3,3.5-.2,1.3.1,2.7.9,3.8.4.5.7,1.1,1,1.7.2.6.2,1.3-.1,1.9-.2.5-.7.9-1.2,1.2-.5.2-1,.3-1.5.2-.8-.2-1.5-.7-1.7-1.5-.2-.5.1-1.1.6-1.3.5-.3.7-.1.7-.1Z"/>
    <path class="cls-12" d="m163.1,199.7c-.4.1-.9.1-1.3,0-1.2-.1-2.4-.5-3.5-1-1.6-.8-3.1-1.9-4.3-3.2-3.1-3.4-4-8.2-2.3-12.5.6-1.7,1.6-3.3,2.9-4.6.8-.9,1.8-1.6,2.9-2.2.4-.2.8-.4,1.2-.5-1.4.8-2.7,1.8-3.8,3-1.2,1.3-2.1,2.8-2.7,4.5-1.6,4.1-.7,8.7,2.2,11.9,1.1,1.3,2.5,2.4,4.1,3.2,1.4.7,3,1.2,4.6,1.4Z"/>
  </g>
</svg>